<svg xmlns="http://www.w3.org/2000/svg" xmlns:xlink="http://www.w3.org/1999/xlink" width="1366" zoomAndPan="magnify" viewBox="0 0 1024.5 576" height="768" preserveAspectRatio="xMidYMid meet" version="1.0"><defs><g/><clipPath id="b72855b732"><path d="M 0 0.140625 L 1024 0.140625 L 1024 575.859375 L 0 575.859375 Z M 0 0.140625 " clip-rule="nonzero"/></clipPath><clipPath id="63b16b219c"><path d="M 0 0.140625 L 1024 0.140625 L 1024 575.859375 L 0 575.859375 Z M 0 0.140625 " clip-rule="nonzero"/></clipPath><clipPath id="be4d5005e3"><rect x="0" width="1024" y="0" height="576"/></clipPath><clipPath id="2f788f8780"><path d="M 32.660156 30.882812 L 388.628906 30.882812 L 388.628906 194.78125 L 32.660156 194.78125 Z M 32.660156 30.882812 " clip-rule="nonzero"/></clipPath><clipPath id="d9e124d855"><path d="M 388.167969 53.371094 L 388.167969 172.292969 C 388.167969 184.714844 378.097656 194.78125 365.679688 194.78125 L 55.148438 194.78125 C 42.730469 194.78125 32.660156 184.714844 32.660156 172.292969 L 32.660156 53.371094 C 32.660156 40.953125 42.730469 30.882812 55.148438 30.882812 L 365.679688 30.882812 C 378.097656 30.882812 388.167969 40.953125 388.167969 53.371094 Z M 388.167969 53.371094 " clip-rule="nonzero"/></clipPath><clipPath id="9c27e57112"><path d="M 0.660156 0.882812 L 356 0.882812 L 356 164.78125 L 0.660156 164.78125 Z M 0.660156 0.882812 " clip-rule="nonzero"/></clipPath><clipPath id="1d0381e35b"><path d="M 356.167969 23.371094 L 356.167969 142.292969 C 356.167969 154.714844 346.097656 164.78125 333.679688 164.78125 L 23.148438 164.78125 C 10.730469 164.78125 0.660156 154.714844 0.660156 142.292969 L 0.660156 23.371094 C 0.660156 10.953125 10.730469 0.882812 23.148438 0.882812 L 333.679688 0.882812 C 346.097656 0.882812 356.167969 10.953125 356.167969 23.371094 Z M 356.167969 23.371094 " clip-rule="nonzero"/></clipPath><clipPath id="fac536e86e"><rect x="0" width="357" y="0" height="165"/></clipPath><clipPath id="8ababa1532"><path d="M 71 61.839844 L 351.941406 61.839844 L 351.941406 158 L 71 158 Z M 71 61.839844 " clip-rule="nonzero"/></clipPath><clipPath id="ce8215bb7b"><path d="M 766.414062 353.804688 L 943 353.804688 L 943 529.21875 L 766.414062 529.21875 Z M 766.414062 353.804688 " clip-rule="nonzero"/></clipPath><clipPath id="acf504d102"><rect x="0" width="598" y="0" height="264"/></clipPath></defs><g clip-path="url(#b72855b732)"><path fill="#ffffff" d="M 0 0.140625 L 1024 0.140625 L 1024 575.859375 L 0 575.859375 Z M 0 0.140625 " fill-opacity="1" fill-rule="nonzero"/><path fill="#ffffff" d="M 0 0.140625 L 1024 0.140625 L 1024 575.859375 L 0 575.859375 Z M 0 0.140625 " fill-opacity="1" fill-rule="nonzero"/><g transform="matrix(1, 0, 0, 1, 0, -0.000000000000058398)"><g clip-path="url(#be4d5005e3)"><g clip-path="url(#63b16b219c)"><path fill="#ffcc00" d="M 0 0.140625 L 1023.25 0.140625 L 1023.25 575.859375 L 0 575.859375 Z M 0 0.140625 " fill-opacity="1" fill-rule="nonzero"/></g></g></g></g><g clip-path="url(#2f788f8780)"><g clip-path="url(#d9e124d855)"><g transform="matrix(1, 0, 0, 1, 32, 30)"><g clip-path="url(#fac536e86e)"><g clip-path="url(#9c27e57112)"><g clip-path="url(#1d0381e35b)"><path fill="#141414" d="M 0.660156 0.882812 L 355.988281 0.882812 L 355.988281 164.78125 L 0.660156 164.78125 Z M 0.660156 0.882812 " fill-opacity="1" fill-rule="nonzero"/></g></g></g></g></g></g><g clip-path="url(#8ababa1532)"><path fill="#ffcc00" d="M 118.515625 61.980469 L 71.148438 109.515625 L 118.515625 157.046875 L 169.464844 157.046875 L 134.953125 122.410156 L 131.964844 119.410156 L 122.101562 109.515625 L 133.441406 98.132812 L 142.824219 98.132812 L 147.996094 103.324219 L 147.996094 103.320312 L 201.535156 157.046875 L 237.566406 157.046875 L 237.566406 98.136719 L 289.65625 98.136719 L 300.996094 109.515625 L 289.65625 120.890625 L 260.242188 120.890625 L 260.242188 157.046875 L 304.574219 157.046875 L 351.945312 109.515625 L 304.574219 61.980469 L 201.539062 61.980469 L 201.539062 105.921875 L 157.75 61.980469 Z M 118.515625 61.980469 " fill-opacity="1" fill-rule="evenodd"/></g><g clip-path="url(#ce8215bb7b)"><path fill="#000000" d="M 942.949219 441.039062 C 942.945312 438.417969 942.828125 435.800781 942.597656 433.191406 C 942.363281 430.582031 942.011719 427.988281 941.546875 425.40625 C 941.085938 422.828125 940.503906 420.273438 939.8125 417.746094 C 939.121094 415.21875 938.320312 412.730469 937.40625 410.273438 C 936.492188 407.816406 935.46875 405.40625 934.339844 403.042969 C 933.210938 400.679688 931.980469 398.367188 930.648438 396.113281 C 929.3125 393.859375 927.882812 391.667969 926.351562 389.542969 C 924.824219 387.414062 923.203125 385.359375 921.488281 383.378906 C 919.777344 381.394531 917.980469 379.492188 916.097656 377.671875 C 914.21875 375.851562 912.257812 374.117188 910.222656 372.46875 C 908.1875 370.820312 906.082031 369.269531 903.90625 367.808594 C 901.730469 366.351562 899.496094 364.992188 897.203125 363.730469 C 894.90625 362.472656 892.558594 361.316406 890.160156 360.269531 C 887.761719 359.21875 885.324219 358.277344 882.839844 357.445312 C 880.359375 356.613281 877.84375 355.890625 875.296875 355.285156 C 872.753906 354.675781 870.183594 354.183594 867.59375 353.804688 L 867.59375 453.734375 L 898.992188 422.296875 L 916.988281 440.316406 L 863.871094 493.503906 L 863.867188 493.503906 L 854.871094 502.511719 L 845.871094 493.503906 L 792.753906 440.316406 L 810.746094 422.296875 L 842.144531 453.730469 L 842.144531 353.804688 C 839.554688 354.183594 836.988281 354.675781 834.441406 355.285156 C 831.894531 355.890625 829.378906 356.613281 826.898438 357.445312 C 824.417969 358.277344 821.976562 359.21875 819.578125 360.269531 C 817.179688 361.316406 814.832031 362.472656 812.539062 363.734375 C 810.242188 364.992188 808.007812 366.351562 805.832031 367.8125 C 803.660156 369.269531 801.554688 370.824219 799.519531 372.46875 C 797.480469 374.117188 795.523438 375.851562 793.640625 377.671875 C 791.761719 379.496094 789.964844 381.398438 788.25 383.378906 C 786.539062 385.359375 784.917969 387.414062 783.390625 389.542969 C 781.859375 391.667969 780.429688 393.859375 779.09375 396.113281 C 777.757812 398.367188 776.527344 400.679688 775.398438 403.042969 C 774.269531 405.40625 773.25 407.816406 772.335938 410.273438 C 771.421875 412.730469 770.621094 415.222656 769.925781 417.75 C 769.234375 420.277344 768.65625 422.828125 768.191406 425.40625 C 767.726562 427.988281 767.378906 430.582031 767.144531 433.191406 C 766.910156 435.800781 766.792969 438.417969 766.792969 441.039062 C 766.792969 442.480469 766.828125 443.921875 766.898438 445.363281 C 766.972656 446.804688 767.078125 448.246094 767.21875 449.679688 C 767.359375 451.117188 767.535156 452.550781 767.746094 453.976562 C 767.957031 455.402344 768.203125 456.824219 768.484375 458.242188 C 768.765625 459.65625 769.082031 461.0625 769.433594 462.464844 C 769.785156 463.863281 770.167969 465.253906 770.585938 466.636719 C 771.003906 468.015625 771.457031 469.386719 771.941406 470.746094 C 772.429688 472.105469 772.945312 473.449219 773.5 474.785156 C 774.050781 476.117188 774.632812 477.4375 775.25 478.738281 C 775.867188 480.042969 776.515625 481.332031 777.195312 482.605469 C 777.875 483.878906 778.582031 485.132812 779.324219 486.371094 C 780.066406 487.609375 780.835938 488.828125 781.636719 490.027344 C 782.4375 491.230469 783.269531 492.410156 784.125 493.566406 C 784.984375 494.726562 785.871094 495.863281 786.785156 496.980469 C 787.699219 498.09375 788.640625 499.1875 789.609375 500.257812 C 790.578125 501.328125 791.570312 502.371094 792.589844 503.390625 C 793.609375 504.414062 794.652344 505.40625 795.722656 506.375 C 796.789062 507.34375 797.882812 508.289062 798.996094 509.203125 C 800.109375 510.117188 801.246094 511.007812 802.402344 511.867188 C 803.5625 512.726562 804.738281 513.554688 805.9375 514.359375 C 807.136719 515.160156 808.355469 515.933594 809.589844 516.675781 C 810.828125 517.414062 812.082031 518.125 813.351562 518.808594 C 814.621094 519.488281 815.910156 520.136719 817.214844 520.753906 C 818.515625 521.371094 819.832031 521.953125 821.164062 522.507812 C 822.496094 523.058594 823.839844 523.578125 825.199219 524.066406 C 826.554688 524.550781 827.925781 525.003906 829.304688 525.421875 C 830.683594 525.839844 832.070312 526.226562 833.46875 526.578125 C 834.867188 526.925781 836.273438 527.242188 837.6875 527.523438 C 839.101562 527.808594 840.523438 528.054688 841.949219 528.265625 C 843.375 528.476562 844.804688 528.652344 846.238281 528.796875 C 847.671875 528.9375 849.109375 529.042969 850.550781 529.113281 C 851.988281 529.183594 853.429688 529.21875 854.871094 529.21875 C 856.3125 529.21875 857.753906 529.183594 859.191406 529.113281 C 860.632812 529.042969 862.070312 528.9375 863.503906 528.796875 C 864.9375 528.652344 866.367188 528.476562 867.792969 528.265625 C 869.21875 528.054688 870.640625 527.808594 872.054688 527.523438 C 873.46875 527.242188 874.875 526.925781 876.273438 526.578125 C 877.671875 526.226562 879.058594 525.839844 880.4375 525.421875 C 881.816406 525.003906 883.1875 524.550781 884.542969 524.066406 C 885.902344 523.578125 887.246094 523.058594 888.578125 522.507812 C 889.910156 521.953125 891.226562 521.371094 892.527344 520.753906 C 893.832031 520.136719 895.117188 519.488281 896.390625 518.808594 C 897.660156 518.128906 898.914062 517.414062 900.152344 516.675781 C 901.386719 515.933594 902.605469 515.160156 903.804688 514.359375 C 905.003906 513.554688 906.179688 512.726562 907.339844 511.867188 C 908.496094 511.007812 909.632812 510.117188 910.746094 509.203125 C 911.859375 508.289062 912.953125 507.34375 914.019531 506.375 C 915.085938 505.40625 916.132812 504.414062 917.152344 503.390625 C 918.167969 502.371094 919.164062 501.328125 920.132812 500.257812 C 921.097656 499.1875 922.039062 498.09375 922.957031 496.980469 C 923.871094 495.863281 924.757812 494.726562 925.613281 493.566406 C 926.472656 492.410156 927.304688 491.230469 928.105469 490.027344 C 928.90625 488.828125 929.675781 487.609375 930.417969 486.371094 C 931.15625 485.132812 931.867188 483.878906 932.546875 482.605469 C 933.226562 481.332031 933.875 480.042969 934.492188 478.742188 C 935.109375 477.4375 935.691406 476.117188 936.242188 474.785156 C 936.792969 473.449219 937.3125 472.105469 937.800781 470.746094 C 938.285156 469.386719 938.738281 468.015625 939.15625 466.636719 C 939.574219 465.253906 939.957031 463.863281 940.308594 462.464844 C 940.660156 461.0625 940.972656 459.65625 941.253906 458.242188 C 941.535156 456.824219 941.78125 455.402344 941.996094 453.976562 C 942.207031 452.550781 942.382812 451.117188 942.523438 449.679688 C 942.664062 448.246094 942.769531 446.804688 942.839844 445.363281 C 942.914062 443.921875 942.949219 442.480469 942.949219 441.039062 Z M 942.949219 441.039062 " fill-opacity="1" fill-rule="evenodd"/></g><g transform="matrix(1, 0, 0, 1, 28, 298)"><g clip-path="url(#acf504d102)"><g fill="#141414" fill-opacity="1"><g transform="translate(0.672332, 74.897418)"><g><path d="M 37.828125 -60.75 C 32.296875 -60.75 27.894531 -58.582031 24.625 -54.25 C 21.351562 -49.914062 19.71875 -43.742188 19.71875 -35.734375 C 19.71875 -28.191406 21.269531 -22.203125 24.375 -17.765625 C 27.476562 -13.328125 31.863281 -11.109375 37.53125 -11.109375 C 41.738281 -11.109375 45.207031 -12.257812 47.9375 -14.5625 C 50.675781 -16.863281 52.515625 -20.21875 53.453125 -24.625 L 68.46875 -24.625 C 66.800781 -16.082031 63.242188 -9.523438 57.796875 -4.953125 C 52.359375 -0.378906 45.503906 1.90625 37.234375 1.90625 C 30.554688 1.90625 24.75 0.390625 19.8125 -2.640625 C 14.875 -5.679688 11.070312 -10.035156 8.40625 -15.703125 C 5.738281 -21.378906 4.40625 -28.085938 4.40625 -35.828125 C 4.40625 -43.566406 5.789062 -50.289062 8.5625 -56 C 11.332031 -61.707031 15.21875 -66.09375 20.21875 -69.15625 C 25.21875 -72.226562 30.988281 -73.765625 37.53125 -73.765625 C 43.207031 -73.765625 48.3125 -72.660156 52.84375 -70.453125 C 57.382812 -68.253906 61.003906 -65.238281 63.703125 -61.40625 C 66.410156 -57.570312 68 -53.21875 68.46875 -48.34375 L 53.453125 -48.34375 C 51.515625 -56.613281 46.304688 -60.75 37.828125 -60.75 Z M 37.828125 -60.75 "/></g></g></g><g fill="#141414" fill-opacity="1"><g transform="translate(65.027237, 74.897418)"><g><path d="M 20.125 -11.515625 L 48.046875 -11.515625 L 48.046875 0 L 2 0 L 2 -10.90625 L 29.328125 -42.046875 L 3.90625 -42.046875 L 3.90625 -53.25 L 47.046875 -53.25 L 47.046875 -41.734375 Z M 20.125 -11.515625 "/></g></g></g><g fill="#141414" fill-opacity="1"><g transform="translate(108.163876, 74.897418)"><g><path d="M 28.828125 -9.8125 C 30.898438 -9.8125 32.785156 -10.3125 34.484375 -11.3125 C 36.179688 -12.3125 37.296875 -13.742188 37.828125 -15.609375 L 52.25 -15.609375 C 50.71875 -10.203125 47.878906 -6.015625 43.734375 -3.046875 C 39.597656 -0.078125 34.628906 1.40625 28.828125 1.40625 C 20.015625 1.40625 13.390625 -1.03125 8.953125 -5.90625 C 4.515625 -10.78125 2.296875 -18.019531 2.296875 -27.625 C 2.296875 -32.894531 3.28125 -37.566406 5.25 -41.640625 C 7.21875 -45.710938 10.101562 -48.898438 13.90625 -51.203125 C 17.71875 -53.503906 22.320312 -54.65625 27.71875 -54.65625 C 35.332031 -54.65625 41.421875 -52.21875 45.984375 -47.34375 C 50.554688 -42.46875 52.84375 -35.09375 52.84375 -25.21875 L 52.84375 -22.828125 L 16.3125 -22.828125 C 16.78125 -14.148438 20.953125 -9.8125 28.828125 -9.8125 Z M 27.53125 -43.140625 C 21.125 -43.140625 17.519531 -39.40625 16.71875 -31.9375 L 38.4375 -31.9375 C 38.101562 -35.40625 36.96875 -38.140625 35.03125 -40.140625 C 33.09375 -42.140625 30.59375 -43.140625 27.53125 -43.140625 Z M 27.53125 -43.140625 "/></g></g></g><g fill="#141414" fill-opacity="1"><g transform="translate(155.90446, 74.897418)"><g><path d="M 29.234375 -42.84375 C 25.492188 -42.84375 22.65625 -41.441406 20.71875 -38.640625 C 18.78125 -35.835938 17.8125 -31.832031 17.8125 -26.625 C 17.8125 -20.550781 18.78125 -16.28125 20.71875 -13.8125 C 22.65625 -11.34375 25.289062 -10.109375 28.625 -10.109375 C 31.226562 -10.109375 33.394531 -10.992188 35.125 -12.765625 C 36.863281 -14.535156 37.867188 -16.753906 38.140625 -19.421875 L 52.34375 -19.421875 C 51.476562 -13.273438 48.976562 -8.265625 44.84375 -4.390625 C 40.707031 -0.523438 35.101562 1.40625 28.03125 1.40625 C 20.019531 1.40625 13.910156 -0.976562 9.703125 -5.75 C 5.503906 -10.519531 3.40625 -16.976562 3.40625 -25.125 C 3.40625 -34.664062 5.601562 -41.972656 10 -47.046875 C 14.40625 -52.117188 20.710938 -54.65625 28.921875 -54.65625 C 33.191406 -54.65625 37.0625 -53.851562 40.53125 -52.25 C 44.007812 -50.644531 46.796875 -48.289062 48.890625 -45.1875 C 50.992188 -42.082031 52.179688 -38.429688 52.453125 -34.234375 L 38.234375 -34.234375 C 37.835938 -36.835938 36.882812 -38.921875 35.375 -40.484375 C 33.875 -42.054688 31.828125 -42.84375 29.234375 -42.84375 Z M 29.234375 -42.84375 "/></g></g></g><g fill="#141414" fill-opacity="1"><g transform="translate(202.644167, 74.897418)"><g><path d="M 20.71875 -46.34375 C 21.914062 -48.875 23.929688 -50.890625 26.765625 -52.390625 C 29.609375 -53.898438 32.734375 -54.65625 36.140625 -54.65625 C 41.671875 -54.65625 46.140625 -53.050781 49.546875 -49.84375 C 52.953125 -46.644531 54.65625 -42.441406 54.65625 -37.234375 L 54.65625 0 L 40.640625 0 L 40.640625 -33.328125 C 40.640625 -39.671875 37.601562 -42.84375 31.53125 -42.84375 C 28.257812 -42.84375 25.601562 -41.773438 23.5625 -39.640625 C 21.53125 -37.503906 20.515625 -34.597656 20.515625 -30.921875 L 20.515625 0 L 6.5 0 L 6.5 -71.875 L 20.515625 -71.875 L 20.515625 -46.34375 Z M 20.71875 -46.34375 "/></g></g></g><g fill="#141414" fill-opacity="1"><g transform="translate(255.88947, 74.897418)"><g><path d="M 6.90625 -59.5625 L 6.90625 -72.5625 L 20.921875 -72.5625 L 20.921875 -59.5625 Z M 6.90625 0 L 6.90625 -53.25 L 20.921875 -53.25 L 20.921875 0 Z M 6.90625 0 "/></g></g></g><g fill="#141414" fill-opacity="1"><g transform="translate(275.806078, 74.897418)"><g><path d="M 52.75 -2.109375 L 52.75 0 L 37.640625 0 C 36.835938 -2.332031 36.398438 -4.4375 36.328125 -6.3125 C 33.796875 -3.570312 31.160156 -1.597656 28.421875 -0.390625 C 25.691406 0.804688 22.59375 1.40625 19.125 1.40625 C 14.25 1.40625 10.328125 0.00390625 7.359375 -2.796875 C 4.390625 -5.597656 2.90625 -9.367188 2.90625 -14.109375 C 2.90625 -18.578125 4.117188 -22.296875 6.546875 -25.265625 C 8.984375 -28.242188 13.34375 -30.265625 19.625 -31.328125 L 29.625 -32.828125 C 32.164062 -33.234375 33.851562 -33.734375 34.6875 -34.328125 C 35.519531 -34.929688 35.9375 -35.929688 35.9375 -37.328125 C 35.9375 -39.335938 35.21875 -40.859375 33.78125 -41.890625 C 32.34375 -42.921875 29.988281 -43.4375 26.71875 -43.4375 C 21.445312 -43.4375 18.578125 -40.96875 18.109375 -36.03125 L 4.609375 -36.03125 C 5.140625 -42.101562 7.1875 -46.722656 10.75 -49.890625 C 14.320312 -53.066406 20.082031 -54.65625 28.03125 -54.65625 C 34.832031 -54.65625 40.132812 -53.316406 43.9375 -50.640625 C 47.738281 -47.972656 49.640625 -44.304688 49.640625 -39.640625 L 49.640625 -9.90625 C 49.640625 -7.4375 49.890625 -5.617188 50.390625 -4.453125 C 50.890625 -3.285156 51.675781 -2.503906 52.75 -2.109375 Z M 35.9375 -19.3125 L 35.9375 -25.921875 C 34.726562 -25.191406 33.421875 -24.609375 32.015625 -24.171875 C 30.617188 -23.734375 28.585938 -23.316406 25.921875 -22.921875 C 22.921875 -22.523438 20.671875 -21.707031 19.171875 -20.46875 C 17.671875 -19.238281 16.921875 -17.421875 16.921875 -15.015625 C 16.921875 -13.078125 17.519531 -11.523438 18.71875 -10.359375 C 19.914062 -9.191406 21.484375 -8.609375 23.421875 -8.609375 C 25.492188 -8.609375 27.492188 -9.054688 29.421875 -9.953125 C 31.359375 -10.859375 32.925781 -12.128906 34.125 -13.765625 C 35.332031 -15.398438 35.9375 -17.25 35.9375 -19.3125 Z M 35.9375 -19.3125 "/></g></g></g><g fill="#141414" fill-opacity="1"><g transform="translate(323.546673, 74.897418)"><g><path d="M 7.203125 -44.546875 L 7.203125 -49.640625 C 9.671875 -50.441406 11.503906 -51.539062 12.703125 -52.9375 C 13.910156 -54.34375 14.546875 -56.414062 14.609375 -59.15625 L 6.90625 -59.15625 L 6.90625 -71.875 L 20.921875 -71.875 L 20.921875 -61.859375 C 20.921875 -56.921875 19.800781 -53.066406 17.5625 -50.296875 C 15.332031 -47.523438 11.878906 -45.609375 7.203125 -44.546875 Z M 7.203125 -44.546875 "/></g></g></g><g fill="#141414" fill-opacity="1"><g transform="translate(337.457937, 74.897418)"><g><path d="M 50.34375 -37.03125 L 36.640625 -37.03125 C 36.234375 -39.632812 35.28125 -41.453125 33.78125 -42.484375 C 32.28125 -43.523438 30.0625 -44.046875 27.125 -44.046875 C 24.320312 -44.046875 22.203125 -43.644531 20.765625 -42.84375 C 19.335938 -42.039062 18.625 -40.707031 18.625 -38.84375 C 18.625 -37.375 19.691406 -36.203125 21.828125 -35.328125 C 23.960938 -34.460938 27.394531 -33.597656 32.125 -32.734375 C 39.46875 -31.328125 44.609375 -29.351562 47.546875 -26.8125 C 50.484375 -24.28125 51.953125 -21.015625 51.953125 -17.015625 C 51.953125 -10.804688 49.765625 -6.179688 45.390625 -3.140625 C 41.023438 -0.109375 35.335938 1.40625 28.328125 1.40625 C 20.515625 1.40625 14.335938 -0.242188 9.796875 -3.546875 C 5.265625 -6.859375 3 -11.347656 3 -17.015625 L 17.421875 -17.015625 C 17.421875 -11.804688 21.253906 -9.203125 28.921875 -9.203125 C 31.660156 -9.203125 33.847656 -9.71875 35.484375 -10.75 C 37.117188 -11.789062 37.9375 -13.113281 37.9375 -14.71875 C 37.9375 -16.3125 36.882812 -17.539062 34.78125 -18.40625 C 32.675781 -19.28125 28.921875 -20.21875 23.515625 -21.21875 C 17.242188 -22.351562 12.570312 -24.171875 9.5 -26.671875 C 6.4375 -29.171875 4.90625 -32.554688 4.90625 -36.828125 C 4.90625 -42.171875 6.804688 -46.476562 10.609375 -49.75 C 14.410156 -53.019531 19.679688 -54.65625 26.421875 -54.65625 C 34.234375 -54.65625 40.085938 -53.117188 43.984375 -50.046875 C 47.890625 -46.972656 50.007812 -42.632812 50.34375 -37.03125 Z M 50.34375 -37.03125 "/></g></g></g><g fill="#141414" fill-opacity="1"><g transform="translate(385.198532, 74.897418)"><g/></g></g><g fill="#141414" fill-opacity="1"><g transform="translate(405.115098, 74.897418)"><g><path d="M 57.859375 -26.625 C 57.859375 -20.882812 56.722656 -15.910156 54.453125 -11.703125 C 52.179688 -7.503906 48.976562 -4.269531 44.84375 -2 C 40.707031 0.269531 35.96875 1.40625 30.625 1.40625 C 25.289062 1.40625 20.550781 0.269531 16.40625 -2 C 12.269531 -4.269531 9.066406 -7.503906 6.796875 -11.703125 C 4.535156 -15.910156 3.40625 -20.882812 3.40625 -26.625 C 3.40625 -32.363281 4.554688 -37.347656 6.859375 -41.578125 C 9.160156 -45.816406 12.378906 -49.054688 16.515625 -51.296875 C 20.648438 -53.535156 25.351562 -54.65625 30.625 -54.65625 C 35.96875 -54.65625 40.707031 -53.519531 44.84375 -51.25 C 48.976562 -48.976562 52.179688 -45.738281 54.453125 -41.53125 C 56.722656 -37.332031 57.859375 -32.363281 57.859375 -26.625 Z M 30.625 -10.40625 C 34.894531 -10.40625 38.097656 -11.820312 40.234375 -14.65625 C 42.367188 -17.5 43.4375 -21.488281 43.4375 -26.625 C 43.4375 -31.757812 42.351562 -35.742188 40.1875 -38.578125 C 38.019531 -41.421875 34.800781 -42.84375 30.53125 -42.84375 C 26.457031 -42.84375 23.316406 -41.441406 21.109375 -38.640625 C 18.910156 -35.835938 17.8125 -31.832031 17.8125 -26.625 C 17.8125 -21.351562 18.894531 -17.332031 21.0625 -14.5625 C 23.238281 -11.789062 26.425781 -10.40625 30.625 -10.40625 Z M 30.625 -10.40625 "/></g></g></g><g fill="#141414" fill-opacity="1"><g transform="translate(458.360442, 74.897418)"><g><path d="M 54.65625 -37.234375 L 54.65625 0 L 40.640625 0 L 40.640625 -33.734375 C 40.640625 -36.671875 39.851562 -38.921875 38.28125 -40.484375 C 36.71875 -42.054688 34.46875 -42.84375 31.53125 -42.84375 C 28.257812 -42.84375 25.601562 -41.773438 23.5625 -39.640625 C 21.53125 -37.503906 20.515625 -34.597656 20.515625 -30.921875 L 20.515625 0 L 6.5 0 L 6.5 -53.25 L 19.921875 -53.25 L 19.921875 -45.4375 L 20.125 -45.4375 C 21.789062 -48.570312 23.988281 -50.890625 26.71875 -52.390625 C 29.457031 -53.898438 32.597656 -54.65625 36.140625 -54.65625 C 39.804688 -54.65625 43.039062 -53.898438 45.84375 -52.390625 C 48.644531 -50.890625 50.8125 -48.820312 52.34375 -46.1875 C 53.882812 -43.550781 54.65625 -40.566406 54.65625 -37.234375 Z M 54.65625 -37.234375 "/></g></g></g><g fill="#141414" fill-opacity="1"><g transform="translate(511.605745, 74.897418)"><g><path d="M 6.90625 0 L 6.90625 -71.875 L 20.921875 -71.875 L 20.921875 0 Z M 6.90625 0 "/></g></g></g><g fill="#141414" fill-opacity="1"><g transform="translate(530.021028, 74.897418)"><g><path d="M 28.21875 -14.015625 L 39.140625 -53.25 L 53.953125 -53.25 L 35.234375 0.703125 C 33.429688 5.773438 31.765625 9.976562 30.234375 13.3125 C 29.296875 15.25 28.273438 16.800781 27.171875 17.96875 C 26.078125 19.132812 24.609375 20 22.765625 20.5625 C 20.929688 21.132812 18.484375 21.421875 15.421875 21.421875 C 14.285156 21.421875 12.046875 21.351562 8.703125 21.21875 L 8.703125 10.015625 L 12.21875 10.203125 C 14.945312 10.203125 16.878906 9.617188 18.015625 8.453125 C 19.148438 7.285156 20.019531 5.203125 20.625 2.203125 L 1 -53.25 L 16.609375 -53.25 L 28.03125 -14.015625 Z M 28.21875 -14.015625 "/></g></g></g><g fill="#141414" fill-opacity="1"><g transform="translate(577.762499, 74.897418)"><g/></g></g><g fill="#141414" fill-opacity="1"><g transform="translate(0.672332, 158.839356)"><g><path d="M 31.53125 -61.359375 C 27.863281 -61.359375 24.859375 -60.570312 22.515625 -59 C 20.179688 -57.4375 19.015625 -55.351562 19.015625 -52.75 C 19.015625 -50.8125 19.566406 -49.222656 20.671875 -47.984375 C 21.773438 -46.753906 24.0625 -45.738281 27.53125 -44.9375 L 44.4375 -40.84375 C 51.375 -39.175781 56.191406 -36.769531 58.890625 -33.625 C 61.597656 -30.488281 62.953125 -26.488281 62.953125 -21.625 C 62.953125 -16.476562 61.703125 -12.132812 59.203125 -8.59375 C 56.703125 -5.0625 53.316406 -2.425781 49.046875 -0.6875 C 44.773438 1.039062 39.9375 1.90625 34.53125 1.90625 C 25.050781 1.90625 17.640625 -0.09375 12.296875 -4.09375 C 6.960938 -8.101562 4.164062 -14.113281 3.90625 -22.125 L 18.3125 -22.125 C 18.445312 -18.445312 19.816406 -15.59375 22.421875 -13.5625 C 25.023438 -11.53125 28.726562 -10.515625 33.53125 -10.515625 C 38.40625 -10.515625 42.125 -11.28125 44.6875 -12.8125 C 47.257812 -14.34375 48.546875 -16.675781 48.546875 -19.8125 C 48.546875 -21.820312 47.859375 -23.390625 46.484375 -24.515625 C 45.117188 -25.648438 42.832031 -26.6875 39.625 -27.625 C 36.425781 -28.5625 31.09375 -29.863281 23.625 -31.53125 C 17.082031 -33 12.34375 -35.332031 9.40625 -38.53125 C 6.46875 -41.738281 5 -46.109375 5 -51.640625 C 5 -55.910156 6.015625 -59.710938 8.046875 -63.046875 C 10.085938 -66.390625 13.175781 -69.007812 17.3125 -70.90625 C 21.445312 -72.8125 26.550781 -73.765625 32.625 -73.765625 C 38.164062 -73.765625 43.019531 -72.8125 47.1875 -70.90625 C 51.363281 -69.007812 54.617188 -66.304688 56.953125 -62.796875 C 59.285156 -59.296875 60.519531 -55.210938 60.65625 -50.546875 L 46.25 -50.546875 C 45.582031 -57.753906 40.675781 -61.359375 31.53125 -61.359375 Z M 31.53125 -61.359375 "/></g></g></g><g fill="#141414" fill-opacity="1"><g transform="translate(59.522487, 158.839356)"><g><path d="M 38.140625 -59.15625 L 38.140625 0 L 23.125 0 L 23.125 -59.15625 L 1.40625 -59.15625 L 1.40625 -71.875 L 59.859375 -71.875 L 59.859375 -59.15625 Z M 38.140625 -59.15625 "/></g></g></g><g fill="#141414" fill-opacity="1"><g transform="translate(112.76781, 158.839356)"><g><path d="M 22.328125 -59.15625 L 22.328125 -44.046875 L 57.359375 -44.046875 L 57.359375 -31.328125 L 22.328125 -31.328125 L 22.328125 -12.71875 L 62.15625 -12.71875 L 62.15625 0 L 7.609375 0 L 7.609375 -71.875 L 60.453125 -71.875 L 60.453125 -59.15625 Z M 22.328125 -59.15625 "/></g></g></g><g fill="#141414" fill-opacity="1"><g transform="translate(171.617966, 158.839356)"><g><path d="M 42.046875 -15.21875 L 54.84375 -71.875 L 76.578125 -71.875 L 76.578125 0 L 62.5625 0 L 62.5625 -60.0625 L 62.359375 -60.0625 L 48.953125 0 L 34.234375 0 L 21.125 -60.0625 L 20.921875 -60.0625 L 20.921875 0 L 6.90625 0 L 6.90625 -71.875 L 28.828125 -71.875 L 41.84375 -15.21875 Z M 42.046875 -15.21875 "/></g></g></g><g fill="#141414" fill-opacity="1"><g transform="translate(247.082453, 158.839356)"><g/></g></g><g fill="#141414" fill-opacity="1"><g transform="translate(266.99904, 158.839356)"><g><path d="M 66.5625 -51.546875 C 66.5625 -47.472656 65.59375 -43.898438 63.65625 -40.828125 C 61.71875 -37.765625 58.984375 -35.632812 55.453125 -34.4375 L 57.859375 -33.234375 C 60.585938 -31.765625 62.382812 -29.691406 63.25 -27.015625 C 64.125 -24.347656 64.5625 -21.015625 64.5625 -17.015625 L 64.5625 -10.3125 C 64.5625 -5.238281 65.628906 -2.4375 67.765625 -1.90625 L 67.765625 0 L 51.140625 0 C 50.742188 -1.195312 50.394531 -2.765625 50.09375 -4.703125 C 49.789062 -6.640625 49.640625 -8.472656 49.640625 -10.203125 L 49.546875 -18.015625 C 49.546875 -21.085938 49.007812 -23.335938 47.9375 -24.765625 C 46.875 -26.203125 45.539062 -27.117188 43.9375 -27.515625 C 42.332031 -27.921875 40.265625 -28.125 37.734375 -28.125 L 22.328125 -28.125 L 22.328125 0 L 7.609375 0 L 7.609375 -71.875 L 44.734375 -71.875 C 49.210938 -71.875 53.101562 -70.9375 56.40625 -69.0625 C 59.707031 -67.195312 62.222656 -64.726562 63.953125 -61.65625 C 65.691406 -58.582031 66.5625 -55.210938 66.5625 -51.546875 Z M 51.546875 -50.046875 C 51.546875 -52.910156 50.628906 -55.191406 48.796875 -56.890625 C 46.960938 -58.597656 44.507812 -59.453125 41.4375 -59.453125 L 22.328125 -59.453125 L 22.328125 -40.234375 L 40.34375 -40.234375 C 44.070312 -40.234375 46.867188 -40.984375 48.734375 -42.484375 C 50.609375 -43.984375 51.546875 -46.503906 51.546875 -50.046875 Z M 51.546875 -50.046875 "/></g></g></g><g fill="#141414" fill-opacity="1"><g transform="translate(331.353956, 158.839356)"><g><path d="M 52.75 -2.109375 L 52.75 0 L 37.640625 0 C 36.835938 -2.332031 36.398438 -4.4375 36.328125 -6.3125 C 33.796875 -3.570312 31.160156 -1.597656 28.421875 -0.390625 C 25.691406 0.804688 22.59375 1.40625 19.125 1.40625 C 14.25 1.40625 10.328125 0.00390625 7.359375 -2.796875 C 4.390625 -5.597656 2.90625 -9.367188 2.90625 -14.109375 C 2.90625 -18.578125 4.117188 -22.296875 6.546875 -25.265625 C 8.984375 -28.242188 13.34375 -30.265625 19.625 -31.328125 L 29.625 -32.828125 C 32.164062 -33.234375 33.851562 -33.734375 34.6875 -34.328125 C 35.519531 -34.929688 35.9375 -35.929688 35.9375 -37.328125 C 35.9375 -39.335938 35.21875 -40.859375 33.78125 -41.890625 C 32.34375 -42.921875 29.988281 -43.4375 26.71875 -43.4375 C 21.445312 -43.4375 18.578125 -40.96875 18.109375 -36.03125 L 4.609375 -36.03125 C 5.140625 -42.101562 7.1875 -46.722656 10.75 -49.890625 C 14.320312 -53.066406 20.082031 -54.65625 28.03125 -54.65625 C 34.832031 -54.65625 40.132812 -53.316406 43.9375 -50.640625 C 47.738281 -47.972656 49.640625 -44.304688 49.640625 -39.640625 L 49.640625 -9.90625 C 49.640625 -7.4375 49.890625 -5.617188 50.390625 -4.453125 C 50.890625 -3.285156 51.675781 -2.503906 52.75 -2.109375 Z M 35.9375 -19.3125 L 35.9375 -25.921875 C 34.726562 -25.191406 33.421875 -24.609375 32.015625 -24.171875 C 30.617188 -23.734375 28.585938 -23.316406 25.921875 -22.921875 C 22.921875 -22.523438 20.671875 -21.707031 19.171875 -20.46875 C 17.671875 -19.238281 16.921875 -17.421875 16.921875 -15.015625 C 16.921875 -13.078125 17.519531 -11.523438 18.71875 -10.359375 C 19.914062 -9.191406 21.484375 -8.609375 23.421875 -8.609375 C 25.492188 -8.609375 27.492188 -9.054688 29.421875 -9.953125 C 31.359375 -10.859375 32.925781 -12.128906 34.125 -13.765625 C 35.332031 -15.398438 35.9375 -17.25 35.9375 -19.3125 Z M 35.9375 -19.3125 "/></g></g></g><g fill="#141414" fill-opacity="1"><g transform="translate(379.094509, 158.839356)"><g><path d="M 29.234375 -42.84375 C 25.492188 -42.84375 22.65625 -41.441406 20.71875 -38.640625 C 18.78125 -35.835938 17.8125 -31.832031 17.8125 -26.625 C 17.8125 -20.550781 18.78125 -16.28125 20.71875 -13.8125 C 22.65625 -11.34375 25.289062 -10.109375 28.625 -10.109375 C 31.226562 -10.109375 33.394531 -10.992188 35.125 -12.765625 C 36.863281 -14.535156 37.867188 -16.753906 38.140625 -19.421875 L 52.34375 -19.421875 C 51.476562 -13.273438 48.976562 -8.265625 44.84375 -4.390625 C 40.707031 -0.523438 35.101562 1.40625 28.03125 1.40625 C 20.019531 1.40625 13.910156 -0.976562 9.703125 -5.75 C 5.503906 -10.519531 3.40625 -16.976562 3.40625 -25.125 C 3.40625 -34.664062 5.601562 -41.972656 10 -47.046875 C 14.40625 -52.117188 20.710938 -54.65625 28.921875 -54.65625 C 33.191406 -54.65625 37.0625 -53.851562 40.53125 -52.25 C 44.007812 -50.644531 46.796875 -48.289062 48.890625 -45.1875 C 50.992188 -42.082031 52.179688 -38.429688 52.453125 -34.234375 L 38.234375 -34.234375 C 37.835938 -36.835938 36.882812 -38.921875 35.375 -40.484375 C 33.875 -42.054688 31.828125 -42.84375 29.234375 -42.84375 Z M 29.234375 -42.84375 "/></g></g></g><g fill="#141414" fill-opacity="1"><g transform="translate(426.835104, 158.839356)"><g><path d="M 6.90625 -59.5625 L 6.90625 -72.5625 L 20.921875 -72.5625 L 20.921875 -59.5625 Z M 6.90625 0 L 6.90625 -53.25 L 20.921875 -53.25 L 20.921875 0 Z M 6.90625 0 "/></g></g></g><g fill="#141414" fill-opacity="1"><g transform="translate(446.751712, 158.839356)"><g><path d="M 54.65625 -37.234375 L 54.65625 0 L 40.640625 0 L 40.640625 -33.734375 C 40.640625 -36.671875 39.851562 -38.921875 38.28125 -40.484375 C 36.71875 -42.054688 34.46875 -42.84375 31.53125 -42.84375 C 28.257812 -42.84375 25.601562 -41.773438 23.5625 -39.640625 C 21.53125 -37.503906 20.515625 -34.597656 20.515625 -30.921875 L 20.515625 0 L 6.5 0 L 6.5 -53.25 L 19.921875 -53.25 L 19.921875 -45.4375 L 20.125 -45.4375 C 21.789062 -48.570312 23.988281 -50.890625 26.71875 -52.390625 C 29.457031 -53.898438 32.597656 -54.65625 36.140625 -54.65625 C 39.804688 -54.65625 43.039062 -53.898438 45.84375 -52.390625 C 48.644531 -50.890625 50.8125 -48.820312 52.34375 -46.1875 C 53.882812 -43.550781 54.65625 -40.566406 54.65625 -37.234375 Z M 54.65625 -37.234375 "/></g></g></g><g fill="#141414" fill-opacity="1"><g transform="translate(499.997056, 158.839356)"><g><path d="M 41.734375 -45.34375 L 41.9375 -45.34375 L 41.9375 -53.25 L 55.359375 -53.25 L 55.359375 -0.796875 C 55.359375 7.472656 52.953125 13.289062 48.140625 16.65625 C 43.335938 20.03125 36.800781 21.71875 28.53125 21.71875 C 21.851562 21.71875 16.34375 20.265625 12 17.359375 C 7.664062 14.460938 5.398438 10.578125 5.203125 5.703125 L 20.421875 5.703125 C 20.816406 7.703125 21.78125 9.101562 23.3125 9.90625 C 24.851562 10.707031 27.125 11.109375 30.125 11.109375 C 34 11.109375 36.835938 10.15625 38.640625 8.25 C 40.441406 6.351562 41.34375 3.367188 41.34375 -0.703125 L 41.34375 -7.5 L 41.140625 -7.703125 C 39.335938 -4.765625 37.351562 -2.695312 35.1875 -1.5 C 33.019531 -0.300781 30.265625 0.296875 26.921875 0.296875 C 22.316406 0.296875 18.28125 -0.800781 14.8125 -3 C 11.34375 -5.207031 8.671875 -8.378906 6.796875 -12.515625 C 4.929688 -16.648438 4 -21.550781 4 -27.21875 C 4 -32.832031 4.929688 -37.707031 6.796875 -41.84375 C 8.671875 -45.976562 11.273438 -49.144531 14.609375 -51.34375 C 17.953125 -53.550781 21.789062 -54.65625 26.125 -54.65625 C 29.863281 -54.65625 33.050781 -53.851562 35.6875 -52.25 C 38.320312 -50.644531 40.335938 -48.34375 41.734375 -45.34375 Z M 29.53125 -11.515625 C 33.394531 -11.515625 36.34375 -12.847656 38.375 -15.515625 C 40.414062 -18.179688 41.4375 -21.984375 41.4375 -26.921875 C 41.4375 -31.460938 40.332031 -35.203125 38.125 -38.140625 C 35.925781 -41.078125 32.992188 -42.546875 29.328125 -42.546875 C 25.921875 -42.546875 23.25 -41.109375 21.3125 -38.234375 C 19.382812 -35.367188 18.421875 -31.429688 18.421875 -26.421875 C 18.421875 -21.816406 19.421875 -18.179688 21.421875 -15.515625 C 23.421875 -12.847656 26.125 -11.515625 29.53125 -11.515625 Z M 29.53125 -11.515625 "/></g></g></g><g fill="#141414" fill-opacity="1"><g transform="translate(553.24744, 158.839356)"><g/></g></g><g fill="#141414" fill-opacity="1"><g transform="translate(0.672332, 242.781295)"><g><path d="M 30.921875 -53.25 L 30.921875 -43.234375 L 22.21875 -43.234375 L 22.21875 -13.515625 C 22.21875 -12.109375 22.597656 -11.171875 23.359375 -10.703125 C 24.128906 -10.242188 25.648438 -10.015625 27.921875 -10.015625 C 28.460938 -10.015625 29.460938 -10.078125 30.921875 -10.203125 L 30.921875 0.40625 C 27.191406 0.53125 24.691406 0.59375 23.421875 0.59375 C 19.148438 0.59375 15.910156 0.144531 13.703125 -0.75 C 11.503906 -1.65625 10.035156 -2.921875 9.296875 -4.546875 C 8.566406 -6.179688 8.203125 -8.335938 8.203125 -11.015625 L 8.203125 -43.234375 L 1 -43.234375 L 1 -53.25 L 8.203125 -53.25 L 8.203125 -67.65625 L 22.21875 -67.65625 L 22.21875 -53.25 Z M 30.921875 -53.25 "/></g></g></g><g fill="#141414" fill-opacity="1"><g transform="translate(26.093668, 242.781295)"><g><path d="M 28.828125 -9.8125 C 30.898438 -9.8125 32.785156 -10.3125 34.484375 -11.3125 C 36.179688 -12.3125 37.296875 -13.742188 37.828125 -15.609375 L 52.25 -15.609375 C 50.71875 -10.203125 47.878906 -6.015625 43.734375 -3.046875 C 39.597656 -0.078125 34.628906 1.40625 28.828125 1.40625 C 20.015625 1.40625 13.390625 -1.03125 8.953125 -5.90625 C 4.515625 -10.78125 2.296875 -18.019531 2.296875 -27.625 C 2.296875 -32.894531 3.28125 -37.566406 5.25 -41.640625 C 7.21875 -45.710938 10.101562 -48.898438 13.90625 -51.203125 C 17.71875 -53.503906 22.320312 -54.65625 27.71875 -54.65625 C 35.332031 -54.65625 41.421875 -52.21875 45.984375 -47.34375 C 50.554688 -42.46875 52.84375 -35.09375 52.84375 -25.21875 L 52.84375 -22.828125 L 16.3125 -22.828125 C 16.78125 -14.148438 20.953125 -9.8125 28.828125 -9.8125 Z M 27.53125 -43.140625 C 21.125 -43.140625 17.519531 -39.40625 16.71875 -31.9375 L 38.4375 -31.9375 C 38.101562 -35.40625 36.96875 -38.140625 35.03125 -40.140625 C 33.09375 -42.140625 30.59375 -43.140625 27.53125 -43.140625 Z M 27.53125 -43.140625 "/></g></g></g><g fill="#141414" fill-opacity="1"><g transform="translate(73.834252, 242.781295)"><g><path d="M 52.75 -2.109375 L 52.75 0 L 37.640625 0 C 36.835938 -2.332031 36.398438 -4.4375 36.328125 -6.3125 C 33.796875 -3.570312 31.160156 -1.597656 28.421875 -0.390625 C 25.691406 0.804688 22.59375 1.40625 19.125 1.40625 C 14.25 1.40625 10.328125 0.00390625 7.359375 -2.796875 C 4.390625 -5.597656 2.90625 -9.367188 2.90625 -14.109375 C 2.90625 -18.578125 4.117188 -22.296875 6.546875 -25.265625 C 8.984375 -28.242188 13.34375 -30.265625 19.625 -31.328125 L 29.625 -32.828125 C 32.164062 -33.234375 33.851562 -33.734375 34.6875 -34.328125 C 35.519531 -34.929688 35.9375 -35.929688 35.9375 -37.328125 C 35.9375 -39.335938 35.21875 -40.859375 33.78125 -41.890625 C 32.34375 -42.921875 29.988281 -43.4375 26.71875 -43.4375 C 21.445312 -43.4375 18.578125 -40.96875 18.109375 -36.03125 L 4.609375 -36.03125 C 5.140625 -42.101562 7.1875 -46.722656 10.75 -49.890625 C 14.320312 -53.066406 20.082031 -54.65625 28.03125 -54.65625 C 34.832031 -54.65625 40.132812 -53.316406 43.9375 -50.640625 C 47.738281 -47.972656 49.640625 -44.304688 49.640625 -39.640625 L 49.640625 -9.90625 C 49.640625 -7.4375 49.890625 -5.617188 50.390625 -4.453125 C 50.890625 -3.285156 51.675781 -2.503906 52.75 -2.109375 Z M 35.9375 -19.3125 L 35.9375 -25.921875 C 34.726562 -25.191406 33.421875 -24.609375 32.015625 -24.171875 C 30.617188 -23.734375 28.585938 -23.316406 25.921875 -22.921875 C 22.921875 -22.523438 20.671875 -21.707031 19.171875 -20.46875 C 17.671875 -19.238281 16.921875 -17.421875 16.921875 -15.015625 C 16.921875 -13.078125 17.519531 -11.523438 18.71875 -10.359375 C 19.914062 -9.191406 21.484375 -8.609375 23.421875 -8.609375 C 25.492188 -8.609375 27.492188 -9.054688 29.421875 -9.953125 C 31.359375 -10.859375 32.925781 -12.128906 34.125 -13.765625 C 35.332031 -15.398438 35.9375 -17.25 35.9375 -19.3125 Z M 35.9375 -19.3125 "/></g></g></g><g fill="#141414" fill-opacity="1"><g transform="translate(121.574836, 242.781295)"><g><path d="M 49.953125 -46.140625 C 53.617188 -51.816406 58.351562 -54.65625 64.15625 -54.65625 C 67.894531 -54.65625 71.164062 -53.898438 73.96875 -52.390625 C 76.769531 -50.890625 78.921875 -48.804688 80.421875 -46.140625 C 81.921875 -43.472656 82.671875 -40.472656 82.671875 -37.140625 L 82.671875 0 L 68.671875 0 L 68.671875 -32.734375 C 68.671875 -36.203125 67.96875 -38.753906 66.5625 -40.390625 C 65.15625 -42.023438 63.285156 -42.84375 60.953125 -42.84375 C 57.617188 -42.84375 55.21875 -41.859375 53.75 -39.890625 C 52.28125 -37.921875 51.546875 -35.300781 51.546875 -32.03125 L 51.546875 0 L 37.53125 0 L 37.53125 -33.03125 C 37.53125 -36.570312 36.847656 -39.09375 35.484375 -40.59375 C 34.117188 -42.09375 32 -42.84375 29.125 -42.84375 C 26.257812 -42.84375 24.09375 -41.957031 22.625 -40.1875 C 21.15625 -38.414062 20.421875 -35.960938 20.421875 -32.828125 L 20.421875 0 L 6.40625 0 L 6.40625 -53.25 L 19.8125 -53.25 L 19.8125 -45.4375 L 20.015625 -45.4375 C 23.148438 -51.582031 28.191406 -54.65625 35.140625 -54.65625 C 38.535156 -54.65625 41.367188 -54.035156 43.640625 -52.796875 C 45.910156 -51.566406 48.015625 -49.347656 49.953125 -46.140625 Z M 49.953125 -46.140625 "/></g></g></g></g></g><g fill="#141414" fill-opacity="1"><g transform="translate(880.357023, 106.062165)"><g><path d="M 41.09375 -17.4375 L 41.09375 -57.40625 L 52.296875 -57.40625 L 52.296875 0 L 40.296875 0 L 16.875 -40.9375 L 16.703125 -40.9375 L 16.703125 0 L 5.515625 0 L 5.515625 -57.40625 L 18.15625 -57.40625 L 40.9375 -17.4375 Z M 41.09375 -17.4375 "/></g></g></g><g fill="#141414" fill-opacity="1"><g transform="translate(936.004293, 106.062165)"><g><path d="M 50.125 -39.09375 C 50.125 -35.738281 49.40625 -32.660156 47.96875 -29.859375 C 46.53125 -27.066406 44.460938 -24.84375 41.765625 -23.1875 C 39.078125 -21.53125 35.921875 -20.703125 32.296875 -20.703125 L 18.0625 -20.703125 L 18.0625 0 L 6.078125 0 L 6.078125 -57.40625 L 32.296875 -57.40625 C 37.835938 -57.40625 42.191406 -55.753906 45.359375 -52.453125 C 48.535156 -49.148438 50.125 -44.695312 50.125 -39.09375 Z M 38.140625 -39.578125 C 38.140625 -42.398438 37.328125 -44.425781 35.703125 -45.65625 C 34.078125 -46.882812 31.503906 -47.5 27.984375 -47.5 L 18.0625 -47.5 L 18.0625 -30.625 L 29.5 -30.625 C 35.257812 -30.625 38.140625 -33.609375 38.140625 -39.578125 Z M 38.140625 -39.578125 "/></g></g></g><g fill="#141414" fill-opacity="1"><g transform="translate(733.171046, 166.782528)"><g><path d="M 53.171875 -41.171875 C 53.171875 -37.921875 52.394531 -35.066406 50.84375 -32.609375 C 49.300781 -30.160156 47.117188 -28.457031 44.296875 -27.5 L 46.21875 -26.546875 C 48.394531 -25.367188 49.828125 -23.710938 50.515625 -21.578125 C 51.210938 -19.453125 51.5625 -16.789062 51.5625 -13.59375 L 51.5625 -8.234375 C 51.5625 -4.179688 52.414062 -1.941406 54.125 -1.515625 L 54.125 0 L 40.859375 0 C 40.535156 -0.957031 40.253906 -2.207031 40.015625 -3.75 C 39.773438 -5.300781 39.65625 -6.769531 39.65625 -8.15625 L 39.578125 -14.390625 C 39.578125 -16.835938 39.148438 -18.632812 38.296875 -19.78125 C 37.441406 -20.925781 36.375 -21.660156 35.09375 -21.984375 C 33.820312 -22.304688 32.171875 -22.46875 30.140625 -22.46875 L 17.828125 -22.46875 L 17.828125 0 L 6.078125 0 L 6.078125 -57.40625 L 35.734375 -57.40625 C 39.304688 -57.40625 42.410156 -56.65625 45.046875 -55.15625 C 47.691406 -53.664062 49.707031 -51.695312 51.09375 -49.25 C 52.476562 -46.800781 53.171875 -44.109375 53.171875 -41.171875 Z M 41.171875 -39.984375 C 41.171875 -42.273438 40.4375 -44.097656 38.96875 -45.453125 C 37.507812 -46.816406 35.550781 -47.5 33.09375 -47.5 L 17.828125 -47.5 L 17.828125 -32.140625 L 32.21875 -32.140625 C 35.207031 -32.140625 37.445312 -32.738281 38.9375 -33.9375 C 40.425781 -35.132812 41.171875 -37.148438 41.171875 -39.984375 Z M 41.171875 -39.984375 "/></g></g></g><g fill="#141414" fill-opacity="1"><g transform="translate(788.818316, 166.782528)"><g><path d="M 42.140625 -1.671875 L 42.140625 0 L 30.0625 0 C 29.425781 -1.863281 29.078125 -3.539062 29.015625 -5.03125 C 26.992188 -2.851562 24.890625 -1.28125 22.703125 -0.3125 C 20.515625 0.644531 18.035156 1.125 15.265625 1.125 C 11.378906 1.125 8.25 0.00390625 5.875 -2.234375 C 3.5 -4.472656 2.3125 -7.484375 2.3125 -11.265625 C 2.3125 -14.835938 3.285156 -17.8125 5.234375 -20.1875 C 7.179688 -22.5625 10.660156 -24.175781 15.671875 -25.03125 L 23.671875 -26.21875 C 25.691406 -26.539062 27.035156 -26.941406 27.703125 -27.421875 C 28.367188 -27.898438 28.703125 -28.703125 28.703125 -29.828125 C 28.703125 -31.421875 28.128906 -32.628906 26.984375 -33.453125 C 25.835938 -34.285156 23.957031 -34.703125 21.34375 -34.703125 C 17.132812 -34.703125 14.84375 -32.726562 14.46875 -28.78125 L 3.671875 -28.78125 C 4.097656 -33.632812 5.738281 -37.328125 8.59375 -39.859375 C 11.445312 -42.390625 16.046875 -43.65625 22.390625 -43.65625 C 27.828125 -43.65625 32.0625 -42.585938 35.09375 -40.453125 C 38.132812 -38.328125 39.65625 -35.394531 39.65625 -31.65625 L 39.65625 -7.921875 C 39.65625 -5.941406 39.851562 -4.484375 40.25 -3.546875 C 40.65625 -2.617188 41.285156 -1.992188 42.140625 -1.671875 Z M 28.703125 -15.4375 L 28.703125 -20.703125 C 27.742188 -20.117188 26.703125 -19.648438 25.578125 -19.296875 C 24.460938 -18.953125 22.835938 -18.625 20.703125 -18.3125 C 18.304688 -17.988281 16.507812 -17.332031 15.3125 -16.34375 C 14.113281 -15.363281 13.515625 -13.914062 13.515625 -12 C 13.515625 -10.445312 13.992188 -9.203125 14.953125 -8.265625 C 15.910156 -7.335938 17.160156 -6.875 18.703125 -6.875 C 20.359375 -6.875 21.957031 -7.234375 23.5 -7.953125 C 25.050781 -8.671875 26.304688 -9.679688 27.265625 -10.984375 C 28.222656 -12.296875 28.703125 -13.78125 28.703125 -15.4375 Z M 28.703125 -15.4375 "/></g></g></g><g fill="#141414" fill-opacity="1"><g transform="translate(831.193347, 166.782528)"><g><path d="M 23.34375 -34.21875 C 20.363281 -34.21875 18.097656 -33.097656 16.546875 -30.859375 C 15.003906 -28.617188 14.234375 -25.421875 14.234375 -21.265625 C 14.234375 -16.410156 15.003906 -13 16.546875 -11.03125 C 18.097656 -9.0625 20.203125 -8.078125 22.859375 -8.078125 C 24.941406 -8.078125 26.675781 -8.78125 28.0625 -10.1875 C 29.445312 -11.601562 30.25 -13.378906 30.46875 -15.515625 L 41.8125 -15.515625 C 41.125 -10.609375 39.125 -6.609375 35.8125 -3.515625 C 32.507812 -0.421875 28.035156 1.125 22.390625 1.125 C 15.992188 1.125 11.113281 -0.78125 7.75 -4.59375 C 4.394531 -8.40625 2.71875 -13.5625 2.71875 -20.0625 C 2.71875 -27.6875 4.472656 -33.523438 7.984375 -37.578125 C 11.503906 -41.628906 16.546875 -43.65625 23.109375 -43.65625 C 26.515625 -43.65625 29.601562 -43.015625 32.375 -41.734375 C 35.144531 -40.453125 37.367188 -38.570312 39.046875 -36.09375 C 40.734375 -33.613281 41.679688 -30.695312 41.890625 -27.34375 L 30.546875 -27.34375 C 30.222656 -29.425781 29.460938 -31.09375 28.265625 -32.34375 C 27.066406 -33.59375 25.425781 -34.21875 23.34375 -34.21875 Z M 23.34375 -34.21875 "/></g></g></g><g fill="#141414" fill-opacity="1"><g transform="translate(873.568377, 166.782528)"><g><path d="M 5.515625 -47.578125 L 5.515625 -57.96875 L 16.703125 -57.96875 L 16.703125 -47.578125 Z M 5.515625 0 L 5.515625 -42.53125 L 16.703125 -42.53125 L 16.703125 0 Z M 5.515625 0 "/></g></g></g><g fill="#141414" fill-opacity="1"><g transform="translate(893.716419, 166.782528)"><g><path d="M 43.65625 -29.75 L 43.65625 0 L 32.46875 0 L 32.46875 -26.9375 C 32.46875 -29.289062 31.835938 -31.09375 30.578125 -32.34375 C 29.328125 -33.59375 27.53125 -34.21875 25.1875 -34.21875 C 22.570312 -34.21875 20.453125 -33.363281 18.828125 -31.65625 C 17.203125 -29.957031 16.390625 -27.640625 16.390625 -24.703125 L 16.390625 0 L 5.203125 0 L 5.203125 -42.53125 L 15.90625 -42.53125 L 15.90625 -36.296875 L 16.078125 -36.296875 C 17.398438 -38.804688 19.15625 -40.660156 21.34375 -41.859375 C 23.53125 -43.054688 26.035156 -43.65625 28.859375 -43.65625 C 31.796875 -43.65625 34.382812 -43.054688 36.625 -41.859375 C 38.863281 -40.660156 40.59375 -39.003906 41.8125 -36.890625 C 43.039062 -34.785156 43.65625 -32.40625 43.65625 -29.75 Z M 43.65625 -29.75 "/></g></g></g><g fill="#141414" fill-opacity="1"><g transform="translate(940.488893, 166.782528)"><g><path d="M 33.34375 -36.21875 L 33.5 -36.21875 L 33.5 -42.53125 L 44.21875 -42.53125 L 44.21875 -0.640625 C 44.21875 5.972656 42.296875 10.625 38.453125 13.3125 C 34.617188 16 29.394531 17.34375 22.78125 17.34375 C 17.457031 17.34375 13.0625 16.179688 9.59375 13.859375 C 6.125 11.546875 4.3125 8.445312 4.15625 4.5625 L 16.3125 4.5625 C 16.632812 6.15625 17.40625 7.269531 18.625 7.90625 C 19.851562 8.550781 21.664062 8.875 24.0625 8.875 C 27.15625 8.875 29.421875 8.113281 30.859375 6.59375 C 32.296875 5.070312 33.015625 2.6875 33.015625 -0.5625 L 33.015625 -6 L 32.859375 -6.15625 C 31.421875 -3.8125 29.832031 -2.160156 28.09375 -1.203125 C 26.363281 -0.242188 24.164062 0.234375 21.5 0.234375 C 17.820312 0.234375 14.597656 -0.640625 11.828125 -2.390625 C 9.054688 -4.148438 6.925781 -6.679688 5.4375 -9.984375 C 3.945312 -13.296875 3.203125 -17.21875 3.203125 -21.75 C 3.203125 -26.226562 3.945312 -30.117188 5.4375 -33.421875 C 6.925781 -36.722656 9.003906 -39.253906 11.671875 -41.015625 C 14.335938 -42.773438 17.40625 -43.65625 20.875 -43.65625 C 23.851562 -43.65625 26.394531 -43.015625 28.5 -41.734375 C 30.601562 -40.453125 32.21875 -38.613281 33.34375 -36.21875 Z M 23.59375 -9.1875 C 26.675781 -9.1875 29.03125 -10.253906 30.65625 -12.390625 C 32.28125 -14.523438 33.09375 -17.5625 33.09375 -21.5 C 33.09375 -25.125 32.210938 -28.109375 30.453125 -30.453125 C 28.703125 -32.804688 26.359375 -33.984375 23.421875 -33.984375 C 20.703125 -33.984375 18.570312 -32.835938 17.03125 -30.546875 C 15.488281 -28.253906 14.71875 -25.109375 14.71875 -21.109375 C 14.71875 -17.429688 15.515625 -14.523438 17.109375 -12.390625 C 18.710938 -10.253906 20.875 -9.1875 23.59375 -9.1875 Z M 23.59375 -9.1875 "/></g></g></g><path stroke-linecap="butt" transform="matrix(0.749634, -0.000000000000000093, 0.000000000000000093, 0.749634, 32.660647, 239.935006)" fill="none" stroke-linejoin="miter" d="M -0.000654759 1.999092 L 1278.862818 1.999092 " stroke="#000000" stroke-width="4" stroke-opacity="1" stroke-miterlimit="4"/><g fill="#141414" fill-opacity="1"><g transform="translate(795.174805, 325.631641)"><g><path d="M 14.171875 -27.578125 C 12.523438 -27.578125 11.175781 -27.222656 10.125 -26.515625 C 9.070312 -25.816406 8.546875 -24.878906 8.546875 -23.703125 C 8.546875 -22.835938 8.789062 -22.125 9.28125 -21.5625 C 9.78125 -21.007812 10.8125 -20.554688 12.375 -20.203125 L 19.96875 -18.359375 C 23.09375 -17.609375 25.257812 -16.523438 26.46875 -15.109375 C 27.6875 -13.703125 28.296875 -11.90625 28.296875 -9.71875 C 28.296875 -7.40625 27.734375 -5.453125 26.609375 -3.859375 C 25.484375 -2.273438 23.957031 -1.09375 22.03125 -0.3125 C 20.113281 0.46875 17.941406 0.859375 15.515625 0.859375 C 11.253906 0.859375 7.925781 -0.0390625 5.53125 -1.84375 C 3.132812 -3.644531 1.875 -6.34375 1.75 -9.9375 L 8.234375 -9.9375 C 8.296875 -8.289062 8.910156 -7.007812 10.078125 -6.09375 C 11.242188 -5.175781 12.90625 -4.71875 15.0625 -4.71875 C 17.257812 -4.71875 18.929688 -5.0625 20.078125 -5.75 C 21.234375 -6.445312 21.8125 -7.5 21.8125 -8.90625 C 21.8125 -9.800781 21.503906 -10.503906 20.890625 -11.015625 C 20.273438 -11.523438 19.25 -11.988281 17.8125 -12.40625 C 16.375 -12.832031 13.972656 -13.421875 10.609375 -14.171875 C 7.671875 -14.828125 5.539062 -15.875 4.21875 -17.3125 C 2.90625 -18.757812 2.25 -20.726562 2.25 -23.21875 C 2.25 -25.132812 2.707031 -26.84375 3.625 -28.34375 C 4.539062 -29.84375 5.925781 -31.019531 7.78125 -31.875 C 9.644531 -32.726562 11.941406 -33.15625 14.671875 -33.15625 C 17.160156 -33.15625 19.335938 -32.726562 21.203125 -31.875 C 23.078125 -31.019531 24.539062 -29.800781 25.59375 -28.21875 C 26.644531 -26.644531 27.203125 -24.8125 27.265625 -22.71875 L 20.78125 -22.71875 C 20.476562 -25.957031 18.273438 -27.578125 14.171875 -27.578125 Z M 14.171875 -27.578125 "/></g></g></g><g fill="#141414" fill-opacity="1"><g transform="translate(824.005704, 325.631641)"><g><path d="M 13.140625 -19.25 C 11.453125 -19.25 10.171875 -18.617188 9.296875 -17.359375 C 8.429688 -16.097656 8 -14.300781 8 -11.96875 C 8 -9.238281 8.429688 -7.316406 9.296875 -6.203125 C 10.171875 -5.097656 11.359375 -4.546875 12.859375 -4.546875 C 14.035156 -4.546875 15.007812 -4.941406 15.78125 -5.734375 C 16.5625 -6.523438 17.015625 -7.523438 17.140625 -8.734375 L 23.53125 -8.734375 C 23.132812 -5.972656 22.003906 -3.722656 20.140625 -1.984375 C 18.285156 -0.242188 15.769531 0.625 12.59375 0.625 C 9 0.625 6.253906 -0.441406 4.359375 -2.578125 C 2.472656 -4.722656 1.53125 -7.628906 1.53125 -11.296875 C 1.53125 -15.578125 2.519531 -18.859375 4.5 -21.140625 C 6.476562 -23.421875 9.3125 -24.5625 13 -24.5625 C 14.914062 -24.5625 16.65625 -24.203125 18.21875 -23.484375 C 19.78125 -22.765625 21.03125 -21.707031 21.96875 -20.3125 C 22.914062 -18.914062 23.453125 -17.273438 23.578125 -15.390625 L 17.1875 -15.390625 C 17.007812 -16.554688 16.582031 -17.488281 15.90625 -18.1875 C 15.226562 -18.894531 14.304688 -19.25 13.140625 -19.25 Z M 13.140625 -19.25 "/></g></g></g><g fill="#141414" fill-opacity="1"><g transform="translate(847.844049, 325.631641)"><g><path d="M 16.78125 -24.46875 L 16.78125 -18.078125 C 16.300781 -18.140625 15.726562 -18.171875 15.0625 -18.171875 C 11.132812 -18.171875 9.171875 -16.3125 9.171875 -12.59375 L 9.171875 0 L 2.875 0 L 2.875 -23.9375 L 8.90625 -23.9375 L 8.90625 -19.796875 L 9 -19.796875 C 9.894531 -21.566406 10.851562 -22.800781 11.875 -23.5 C 12.894531 -24.207031 14.125 -24.5625 15.5625 -24.5625 C 15.71875 -24.5625 16.125 -24.53125 16.78125 -24.46875 Z M 16.78125 -24.46875 "/></g></g></g><g fill="#141414" fill-opacity="1"><g transform="translate(864.171068, 325.631641)"><g><path d="M 26 -11.96875 C 26 -9.382812 25.488281 -7.144531 24.46875 -5.25 C 23.445312 -3.363281 22.003906 -1.910156 20.140625 -0.890625 C 18.285156 0.117188 16.160156 0.625 13.765625 0.625 C 11.367188 0.625 9.238281 0.117188 7.375 -0.890625 C 5.519531 -1.910156 4.082031 -3.363281 3.0625 -5.25 C 2.039062 -7.144531 1.53125 -9.382812 1.53125 -11.96875 C 1.53125 -14.539062 2.046875 -16.78125 3.078125 -18.6875 C 4.117188 -20.59375 5.566406 -22.046875 7.421875 -23.046875 C 9.285156 -24.054688 11.398438 -24.5625 13.765625 -24.5625 C 16.160156 -24.5625 18.285156 -24.050781 20.140625 -23.03125 C 22.003906 -22.007812 23.445312 -20.550781 24.46875 -18.65625 C 25.488281 -16.769531 26 -14.539062 26 -11.96875 Z M 13.765625 -4.671875 C 15.679688 -4.671875 17.117188 -5.304688 18.078125 -6.578125 C 19.035156 -7.859375 19.515625 -9.65625 19.515625 -11.96875 C 19.515625 -14.269531 19.023438 -16.054688 18.046875 -17.328125 C 17.078125 -18.609375 15.632812 -19.25 13.71875 -19.25 C 11.882812 -19.25 10.472656 -18.617188 9.484375 -17.359375 C 8.492188 -16.097656 8 -14.300781 8 -11.96875 C 8 -9.59375 8.488281 -7.78125 9.46875 -6.53125 C 10.445312 -5.289062 11.878906 -4.671875 13.765625 -4.671875 Z M 13.765625 -4.671875 "/></g></g></g><g fill="#141414" fill-opacity="1"><g transform="translate(890.483195, 325.631641)"><g><path d="M 3.109375 0 L 3.109375 -32.296875 L 9.40625 -32.296875 L 9.40625 0 Z M 3.109375 0 "/></g></g></g><g fill="#141414" fill-opacity="1"><g transform="translate(901.817648, 325.631641)"><g><path d="M 3.109375 0 L 3.109375 -32.296875 L 9.40625 -32.296875 L 9.40625 0 Z M 3.109375 0 "/></g></g></g></svg>
