<svg xmlns="http://www.w3.org/2000/svg" xmlns:xlink="http://www.w3.org/1999/xlink" width="1366" zoomAndPan="magnify" viewBox="0 0 1024.5 576" height="768" preserveAspectRatio="xMidYMid meet" version="1.0"><defs><g/><clipPath id="c6e81a3b8a"><path d="M 0 0.140625 L 1024 0.140625 L 1024 575.859375 L 0 575.859375 Z M 0 0.140625 " clip-rule="nonzero"/></clipPath><clipPath id="36f286e049"><path d="M 0 0.140625 L 1024 0.140625 L 1024 575.859375 L 0 575.859375 Z M 0 0.140625 " clip-rule="nonzero"/></clipPath><clipPath id="b31e3a2a83"><rect x="0" width="1024" y="0" height="576"/></clipPath><clipPath id="8066665a7a"><path d="M 478.613281 57 L 545.332031 57 L 545.332031 66 L 478.613281 66 Z M 478.613281 57 " clip-rule="nonzero"/></clipPath><clipPath id="f681409c33"><path d="M 452.054688 8.109375 L 571.996094 8.109375 L 571.996094 47.839844 L 452.054688 47.839844 Z M 452.054688 8.109375 " clip-rule="nonzero"/></clipPath><clipPath id="890f747d6b"><path d="M 32 17 L 114 17 L 114 98 L 32 98 Z M 32 17 " clip-rule="nonzero"/></clipPath><clipPath id="9e06ff0b3d"><path d="M 73.121094 0.605469 L 129.835938 57.324219 L 72.589844 114.570312 L 15.871094 57.855469 Z M 73.121094 0.605469 " clip-rule="nonzero"/></clipPath><clipPath id="aca34e4583"><path d="M 73.121094 0.605469 L 129.835938 57.324219 L 72.589844 114.570312 L 15.871094 57.855469 Z M 73.121094 0.605469 " clip-rule="nonzero"/></clipPath><clipPath id="b920f41777"><path d="M 73.121094 0.605469 L 129.835938 57.324219 L 72.589844 114.570312 L 15.871094 57.855469 Z M 73.121094 0.605469 " clip-rule="nonzero"/></clipPath></defs><g clip-path="url(#c6e81a3b8a)"><path fill="#ffffff" d="M 0 0.140625 L 1024 0.140625 L 1024 575.859375 L 0 575.859375 Z M 0 0.140625 " fill-opacity="1" fill-rule="nonzero"/><path fill="#ffffff" d="M 0 0.140625 L 1024 0.140625 L 1024 575.859375 L 0 575.859375 Z M 0 0.140625 " fill-opacity="1" fill-rule="nonzero"/><g transform="matrix(1, 0, 0, 1, 0, -0.000000000000058398)"><g clip-path="url(#b31e3a2a83)"><g clip-path="url(#36f286e049)"><path fill="#ffcc00" d="M 0 0.140625 L 1023.25 0.140625 L 1023.25 575.859375 L 0 575.859375 Z M 0 0.140625 " fill-opacity="1" fill-rule="nonzero"/></g></g></g></g><g fill="#141414" fill-opacity="1"><g transform="translate(596.310334, 97.772881)"><g><path d="M 31.609375 -49.03125 L 31.609375 0 L 19.15625 0 L 19.15625 -49.03125 L 1.15625 -49.03125 L 1.15625 -59.5625 L 49.609375 -59.5625 L 49.609375 -49.03125 Z M 31.609375 -49.03125 "/></g></g></g><g fill="#141414" fill-opacity="1"><g transform="translate(644.836938, 97.772881)"><g><path d="M 17.171875 -38.40625 C 18.171875 -40.507812 19.84375 -42.179688 22.1875 -43.421875 C 24.539062 -44.671875 27.128906 -45.296875 29.953125 -45.296875 C 34.535156 -45.296875 38.238281 -43.96875 41.0625 -41.3125 C 43.882812 -38.65625 45.296875 -35.171875 45.296875 -30.859375 L 45.296875 0 L 33.671875 0 L 33.671875 -27.625 C 33.671875 -32.875 31.15625 -35.5 26.125 -35.5 C 23.414062 -35.5 21.21875 -34.613281 19.53125 -32.84375 C 17.84375 -31.070312 17 -28.664062 17 -25.625 L 17 0 L 5.390625 0 L 5.390625 -59.5625 L 17 -59.5625 L 17 -38.40625 Z M 17.171875 -38.40625 "/></g></g></g><g fill="#141414" fill-opacity="1"><g transform="translate(693.363542, 97.772881)"><g><path d="M 23.890625 -8.125 C 25.609375 -8.125 27.171875 -8.539062 28.578125 -9.375 C 29.984375 -10.207031 30.910156 -11.394531 31.359375 -12.9375 L 43.296875 -12.9375 C 42.023438 -8.457031 39.675781 -4.988281 36.25 -2.53125 C 32.820312 -0.0703125 28.703125 1.15625 23.890625 1.15625 C 16.585938 1.15625 11.097656 -0.859375 7.421875 -4.890625 C 3.742188 -8.929688 1.90625 -14.929688 1.90625 -22.890625 C 1.90625 -27.265625 2.71875 -31.132812 4.34375 -34.5 C 5.976562 -37.875 8.375 -40.515625 11.53125 -42.421875 C 14.6875 -44.335938 18.503906 -45.296875 22.984375 -45.296875 C 29.285156 -45.296875 34.328125 -43.273438 38.109375 -39.234375 C 41.898438 -35.203125 43.796875 -29.09375 43.796875 -20.90625 L 43.796875 -18.90625 L 13.515625 -18.90625 C 13.910156 -11.71875 17.367188 -8.125 23.890625 -8.125 Z M 22.8125 -35.75 C 17.5 -35.75 14.515625 -32.65625 13.859375 -26.46875 L 31.859375 -26.46875 C 31.578125 -29.34375 30.632812 -31.609375 29.03125 -33.265625 C 27.425781 -34.921875 25.351562 -35.75 22.8125 -35.75 Z M 22.8125 -35.75 "/></g></g></g><g fill="#141414" fill-opacity="1"><g transform="translate(737.327806, 97.772881)"><g/></g></g><g fill="#141414" fill-opacity="1"><g transform="translate(758.231487, 97.772881)"><g><path d="M 31.609375 -49.03125 L 31.609375 0 L 19.15625 0 L 19.15625 -49.03125 L 1.15625 -49.03125 L 1.15625 -59.5625 L 49.609375 -59.5625 L 49.609375 -49.03125 Z M 31.609375 -49.03125 "/></g></g></g><g fill="#141414" fill-opacity="1"><g transform="translate(806.75808, 97.772881)"><g><path d="M 23.890625 -8.125 C 25.609375 -8.125 27.171875 -8.539062 28.578125 -9.375 C 29.984375 -10.207031 30.910156 -11.394531 31.359375 -12.9375 L 43.296875 -12.9375 C 42.023438 -8.457031 39.675781 -4.988281 36.25 -2.53125 C 32.820312 -0.0703125 28.703125 1.15625 23.890625 1.15625 C 16.585938 1.15625 11.097656 -0.859375 7.421875 -4.890625 C 3.742188 -8.929688 1.90625 -14.929688 1.90625 -22.890625 C 1.90625 -27.265625 2.71875 -31.132812 4.34375 -34.5 C 5.976562 -37.875 8.375 -40.515625 11.53125 -42.421875 C 14.6875 -44.335938 18.503906 -45.296875 22.984375 -45.296875 C 29.285156 -45.296875 34.328125 -43.273438 38.109375 -39.234375 C 41.898438 -35.203125 43.796875 -29.09375 43.796875 -20.90625 L 43.796875 -18.90625 L 13.515625 -18.90625 C 13.910156 -11.71875 17.367188 -8.125 23.890625 -8.125 Z M 22.8125 -35.75 C 17.5 -35.75 14.515625 -32.65625 13.859375 -26.46875 L 31.859375 -26.46875 C 31.578125 -29.34375 30.632812 -31.609375 29.03125 -33.265625 C 27.425781 -34.921875 25.351562 -35.75 22.8125 -35.75 Z M 22.8125 -35.75 "/></g></g></g><g fill="#141414" fill-opacity="1"><g transform="translate(850.722354, 97.772881)"><g><path d="M 43.71875 -1.734375 L 43.71875 0 L 31.1875 0 C 30.519531 -1.9375 30.160156 -3.675781 30.109375 -5.21875 C 28.003906 -2.957031 25.816406 -1.328125 23.546875 -0.328125 C 21.285156 0.660156 18.71875 1.15625 15.84375 1.15625 C 11.800781 1.15625 8.550781 -0.00390625 6.09375 -2.328125 C 3.632812 -4.648438 2.40625 -7.773438 2.40625 -11.703125 C 2.40625 -15.398438 3.414062 -18.476562 5.4375 -20.9375 C 7.457031 -23.40625 11.066406 -25.082031 16.265625 -25.96875 L 24.546875 -27.203125 C 26.648438 -27.535156 28.046875 -27.953125 28.734375 -28.453125 C 29.429688 -28.953125 29.78125 -29.78125 29.78125 -30.9375 C 29.78125 -32.601562 29.1875 -33.863281 28 -34.71875 C 26.8125 -35.570312 24.863281 -36 22.15625 -36 C 17.78125 -36 15.398438 -33.953125 15.015625 -29.859375 L 3.8125 -29.859375 C 4.257812 -34.890625 5.960938 -38.71875 8.921875 -41.34375 C 11.878906 -43.976562 16.648438 -45.296875 23.234375 -45.296875 C 28.867188 -45.296875 33.257812 -44.1875 36.40625 -41.96875 C 39.5625 -39.757812 41.140625 -36.71875 41.140625 -32.84375 L 41.140625 -8.21875 C 41.140625 -6.164062 41.347656 -4.65625 41.765625 -3.6875 C 42.179688 -2.71875 42.832031 -2.066406 43.71875 -1.734375 Z M 29.78125 -16.015625 L 29.78125 -21.484375 C 28.78125 -20.878906 27.695312 -20.394531 26.53125 -20.03125 C 25.375 -19.675781 23.691406 -19.332031 21.484375 -19 C 18.992188 -18.664062 17.125 -17.984375 15.875 -16.953125 C 14.632812 -15.929688 14.015625 -14.425781 14.015625 -12.4375 C 14.015625 -10.832031 14.507812 -9.546875 15.5 -8.578125 C 16.5 -7.617188 17.800781 -7.140625 19.40625 -7.140625 C 21.125 -7.140625 22.785156 -7.507812 24.390625 -8.25 C 25.992188 -9 27.289062 -10.050781 28.28125 -11.40625 C 29.28125 -12.757812 29.78125 -14.296875 29.78125 -16.015625 Z M 29.78125 -16.015625 "/></g></g></g><g fill="#141414" fill-opacity="1"><g transform="translate(894.686629, 97.772881)"><g><path d="M 41.390625 -38.234375 C 44.429688 -42.941406 48.359375 -45.296875 53.171875 -45.296875 C 56.265625 -45.296875 58.972656 -44.671875 61.296875 -43.421875 C 63.617188 -42.179688 65.398438 -40.453125 66.640625 -38.234375 C 67.890625 -36.023438 68.515625 -33.539062 68.515625 -30.78125 L 68.515625 0 L 56.90625 0 L 56.90625 -27.125 C 56.90625 -30 56.320312 -32.113281 55.15625 -33.46875 C 54 -34.820312 52.453125 -35.5 50.515625 -35.5 C 47.753906 -35.5 45.765625 -34.679688 44.546875 -33.046875 C 43.328125 -31.421875 42.71875 -29.253906 42.71875 -26.546875 L 42.71875 0 L 31.109375 0 L 31.109375 -27.375 C 31.109375 -30.300781 30.539062 -32.382812 29.40625 -33.625 C 28.269531 -34.875 26.515625 -35.5 24.140625 -35.5 C 21.765625 -35.5 19.96875 -34.765625 18.75 -33.296875 C 17.53125 -31.835938 16.921875 -29.804688 16.921875 -27.203125 L 16.921875 0 L 5.3125 0 L 5.3125 -44.125 L 16.421875 -44.125 L 16.421875 -37.65625 L 16.59375 -37.65625 C 19.1875 -42.75 23.359375 -45.296875 29.109375 -45.296875 C 31.929688 -45.296875 34.28125 -44.78125 36.15625 -43.75 C 38.039062 -42.726562 39.785156 -40.890625 41.390625 -38.234375 Z M 41.390625 -38.234375 "/></g></g></g><g fill="#141414" fill-opacity="1"><g transform="translate(969.190985, 56.576738)"><g><path d="M 9.515625 0 L 9.515625 -19.546875 L 2.765625 -19.546875 L 2.765625 -23.46875 L 3.40625 -23.46875 C 5.664062 -23.46875 7.390625 -23.898438 8.578125 -24.765625 C 9.765625 -25.628906 10.410156 -26.835938 10.515625 -28.390625 L 15.109375 -28.390625 L 15.109375 0 Z M 9.515625 0 "/></g></g></g><g clip-path="url(#8066665a7a)"><path fill="#141414" d="M 538.507812 65.3125 C 540.851562 62.140625 543.070312 59.34375 545.015625 57 L 478.769531 57 C 480.714844 59.34375 482.933594 62.140625 485.277344 65.3125 Z M 538.507812 65.3125 " fill-opacity="1" fill-rule="evenodd"/></g><g clip-path="url(#f681409c33)"><path fill="#141414" d="M 472.835938 8.109375 L 452.894531 28.050781 L 472.835938 47.992188 L 494.28125 47.992188 L 479.753906 33.460938 L 474.34375 28.050781 L 479.117188 23.277344 L 483.066406 23.277344 L 485.246094 25.453125 L 507.78125 47.992188 L 522.953125 47.992188 L 522.953125 23.277344 L 544.882812 23.277344 L 549.65625 28.050781 L 544.882812 32.824219 L 532.5 32.824219 L 532.5 47.992188 L 551.164062 47.992188 L 571.101562 28.050781 L 551.164062 8.109375 L 507.785156 8.109375 L 507.785156 26.542969 L 489.351562 8.109375 Z M 472.835938 8.109375 " fill-opacity="1" fill-rule="evenodd"/></g><path stroke-linecap="butt" transform="matrix(0.749634, -0.000000000000000093, 0.000000000000000093, 0.749634, 32.660647, 125.01914)" fill="none" stroke-linejoin="miter" d="M -0.000654759 2.001497 L 1278.862818 2.001497 " stroke="#000000" stroke-width="4" stroke-opacity="1" stroke-miterlimit="4"/><g fill="#141414" fill-opacity="1"><g transform="translate(34.027466, 210.872584)"><g><path d="M 13.375 -35.4375 L 13.375 -26.390625 L 34.359375 -26.390625 L 34.359375 -18.765625 L 13.375 -18.765625 L 13.375 -7.609375 L 37.234375 -7.609375 L 37.234375 0 L 4.5625 0 L 4.5625 -43.0625 L 36.21875 -43.0625 L 36.21875 -35.4375 Z M 13.375 -35.4375 "/></g></g></g><g fill="#141414" fill-opacity="1"><g transform="translate(72.468669, 210.872584)"><g><path d="M 32.75 -22.3125 L 32.75 0 L 24.34375 0 L 24.34375 -20.203125 C 24.34375 -21.960938 23.875 -23.3125 22.9375 -24.25 C 22 -25.195312 20.648438 -25.671875 18.890625 -25.671875 C 16.929688 -25.671875 15.34375 -25.03125 14.125 -23.75 C 12.90625 -22.46875 12.296875 -20.726562 12.296875 -18.53125 L 12.296875 0 L 3.890625 0 L 3.890625 -31.90625 L 11.9375 -31.90625 L 11.9375 -27.21875 L 12.046875 -27.21875 C 13.046875 -29.101562 14.363281 -30.492188 16 -31.390625 C 17.644531 -32.296875 19.53125 -32.75 21.65625 -32.75 C 23.851562 -32.75 25.789062 -32.296875 27.46875 -31.390625 C 29.144531 -30.492188 30.441406 -29.253906 31.359375 -27.671875 C 32.285156 -26.097656 32.75 -24.3125 32.75 -22.3125 Z M 32.75 -22.3125 "/></g></g></g><g fill="#141414" fill-opacity="1"><g transform="translate(107.551513, 210.872584)"><g><path d="M 25 -27.171875 L 25.125 -27.171875 L 25.125 -31.90625 L 33.15625 -31.90625 L 33.15625 -0.484375 C 33.15625 4.472656 31.71875 7.960938 28.84375 9.984375 C 25.96875 12.003906 22.050781 13.015625 17.09375 13.015625 C 13.09375 13.015625 9.789062 12.144531 7.1875 10.40625 C 4.59375 8.664062 3.238281 6.335938 3.125 3.421875 L 12.234375 3.421875 C 12.472656 4.617188 13.050781 5.457031 13.96875 5.9375 C 14.894531 6.414062 16.253906 6.65625 18.046875 6.65625 C 20.367188 6.65625 22.066406 6.082031 23.140625 4.9375 C 24.222656 3.800781 24.765625 2.015625 24.765625 -0.421875 L 24.765625 -4.5 L 24.640625 -4.625 C 23.566406 -2.863281 22.378906 -1.617188 21.078125 -0.890625 C 19.773438 -0.171875 18.125 0.1875 16.125 0.1875 C 13.375 0.1875 10.957031 -0.472656 8.875 -1.796875 C 6.789062 -3.117188 5.191406 -5.019531 4.078125 -7.5 C 2.960938 -9.976562 2.40625 -12.914062 2.40625 -16.3125 C 2.40625 -19.664062 2.960938 -22.582031 4.078125 -25.0625 C 5.191406 -27.539062 6.75 -29.441406 8.75 -30.765625 C 10.75 -32.085938 13.050781 -32.75 15.65625 -32.75 C 17.894531 -32.75 19.800781 -32.265625 21.375 -31.296875 C 22.957031 -30.335938 24.164062 -28.960938 25 -27.171875 Z M 17.6875 -6.890625 C 20.007812 -6.890625 21.78125 -7.6875 23 -9.28125 C 24.21875 -10.882812 24.828125 -13.164062 24.828125 -16.125 C 24.828125 -18.84375 24.164062 -21.082031 22.84375 -22.84375 C 21.53125 -24.601562 19.773438 -25.484375 17.578125 -25.484375 C 15.535156 -25.484375 13.929688 -24.625 12.765625 -22.90625 C 11.609375 -21.1875 11.03125 -18.828125 11.03125 -15.828125 C 11.03125 -13.066406 11.628906 -10.882812 12.828125 -9.28125 C 14.023438 -7.6875 15.644531 -6.890625 17.6875 -6.890625 Z M 17.6875 -6.890625 "/></g></g></g><g fill="#141414" fill-opacity="1"><g transform="translate(142.634357, 210.872584)"><g><path d="M 4.140625 -35.6875 L 4.140625 -43.484375 L 12.53125 -43.484375 L 12.53125 -35.6875 Z M 4.140625 0 L 4.140625 -31.90625 L 12.53125 -31.90625 L 12.53125 0 Z M 4.140625 0 "/></g></g></g><g fill="#141414" fill-opacity="1"><g transform="translate(157.746961, 210.872584)"><g><path d="M 32.75 -22.3125 L 32.75 0 L 24.34375 0 L 24.34375 -20.203125 C 24.34375 -21.960938 23.875 -23.3125 22.9375 -24.25 C 22 -25.195312 20.648438 -25.671875 18.890625 -25.671875 C 16.929688 -25.671875 15.34375 -25.03125 14.125 -23.75 C 12.90625 -22.46875 12.296875 -20.726562 12.296875 -18.53125 L 12.296875 0 L 3.890625 0 L 3.890625 -31.90625 L 11.9375 -31.90625 L 11.9375 -27.21875 L 12.046875 -27.21875 C 13.046875 -29.101562 14.363281 -30.492188 16 -31.390625 C 17.644531 -32.296875 19.53125 -32.75 21.65625 -32.75 C 23.851562 -32.75 25.789062 -32.296875 27.46875 -31.390625 C 29.144531 -30.492188 30.441406 -29.253906 31.359375 -27.671875 C 32.285156 -26.097656 32.75 -24.3125 32.75 -22.3125 Z M 32.75 -22.3125 "/></g></g></g><g fill="#141414" fill-opacity="1"><g transform="translate(192.829805, 210.872584)"><g><path d="M 17.265625 -5.875 C 18.503906 -5.875 19.632812 -6.171875 20.65625 -6.765625 C 21.675781 -7.367188 22.347656 -8.234375 22.671875 -9.359375 L 31.296875 -9.359375 C 30.378906 -6.117188 28.679688 -3.609375 26.203125 -1.828125 C 23.722656 -0.046875 20.742188 0.84375 17.265625 0.84375 C 11.992188 0.84375 8.023438 -0.613281 5.359375 -3.53125 C 2.703125 -6.457031 1.375 -10.796875 1.375 -16.546875 C 1.375 -19.703125 1.960938 -22.5 3.140625 -24.9375 C 4.328125 -27.382812 6.054688 -29.296875 8.328125 -30.671875 C 10.609375 -32.054688 13.367188 -32.75 16.609375 -32.75 C 21.171875 -32.75 24.816406 -31.285156 27.546875 -28.359375 C 30.285156 -25.441406 31.65625 -21.023438 31.65625 -15.109375 L 31.65625 -13.671875 L 9.78125 -13.671875 C 10.050781 -8.472656 12.546875 -5.875 17.265625 -5.875 Z M 16.484375 -25.84375 C 12.648438 -25.84375 10.492188 -23.601562 10.015625 -19.125 L 23.03125 -19.125 C 22.832031 -21.207031 22.148438 -22.847656 20.984375 -24.046875 C 19.828125 -25.242188 18.328125 -25.84375 16.484375 -25.84375 Z M 16.484375 -25.84375 "/></g></g></g><g fill="#141414" fill-opacity="1"><g transform="translate(224.614264, 210.872584)"><g><path d="M 17.265625 -5.875 C 18.503906 -5.875 19.632812 -6.171875 20.65625 -6.765625 C 21.675781 -7.367188 22.347656 -8.234375 22.671875 -9.359375 L 31.296875 -9.359375 C 30.378906 -6.117188 28.679688 -3.609375 26.203125 -1.828125 C 23.722656 -0.046875 20.742188 0.84375 17.265625 0.84375 C 11.992188 0.84375 8.023438 -0.613281 5.359375 -3.53125 C 2.703125 -6.457031 1.375 -10.796875 1.375 -16.546875 C 1.375 -19.703125 1.960938 -22.5 3.140625 -24.9375 C 4.328125 -27.382812 6.054688 -29.296875 8.328125 -30.671875 C 10.609375 -32.054688 13.367188 -32.75 16.609375 -32.75 C 21.171875 -32.75 24.816406 -31.285156 27.546875 -28.359375 C 30.285156 -25.441406 31.65625 -21.023438 31.65625 -15.109375 L 31.65625 -13.671875 L 9.78125 -13.671875 C 10.050781 -8.472656 12.546875 -5.875 17.265625 -5.875 Z M 16.484375 -25.84375 C 12.648438 -25.84375 10.492188 -23.601562 10.015625 -19.125 L 23.03125 -19.125 C 22.832031 -21.207031 22.148438 -22.847656 20.984375 -24.046875 C 19.828125 -25.242188 18.328125 -25.84375 16.484375 -25.84375 Z M 16.484375 -25.84375 "/></g></g></g><g fill="#141414" fill-opacity="1"><g transform="translate(256.398711, 210.872584)"><g><path d="M 22.375 -32.625 L 22.375 -24.109375 C 21.726562 -24.191406 20.96875 -24.234375 20.09375 -24.234375 C 14.851562 -24.234375 12.234375 -21.753906 12.234375 -16.796875 L 12.234375 0 L 3.84375 0 L 3.84375 -31.90625 L 11.875 -31.90625 L 11.875 -26.390625 L 12 -26.390625 C 13.195312 -28.742188 14.472656 -30.390625 15.828125 -31.328125 C 17.191406 -32.273438 18.832031 -32.75 20.75 -32.75 C 20.945312 -32.75 21.488281 -32.707031 22.375 -32.625 Z M 22.375 -32.625 "/></g></g></g><g fill="#141414" fill-opacity="1"><g transform="translate(34.027466, 318.969883)"><g><path d="M 22.84375 -35.4375 L 22.84375 0 L 13.859375 0 L 13.859375 -35.4375 L 0.84375 -35.4375 L 0.84375 -43.0625 L 35.859375 -43.0625 L 35.859375 -35.4375 Z M 22.84375 -35.4375 "/></g></g></g><g fill="#141414" fill-opacity="1"><g transform="translate(69.110311, 318.969883)"><g><path d="M 17.265625 -5.875 C 18.503906 -5.875 19.632812 -6.171875 20.65625 -6.765625 C 21.675781 -7.367188 22.347656 -8.234375 22.671875 -9.359375 L 31.296875 -9.359375 C 30.378906 -6.117188 28.679688 -3.609375 26.203125 -1.828125 C 23.722656 -0.046875 20.742188 0.84375 17.265625 0.84375 C 11.992188 0.84375 8.023438 -0.613281 5.359375 -3.53125 C 2.703125 -6.457031 1.375 -10.796875 1.375 -16.546875 C 1.375 -19.703125 1.960938 -22.5 3.140625 -24.9375 C 4.328125 -27.382812 6.054688 -29.296875 8.328125 -30.671875 C 10.609375 -32.054688 13.367188 -32.75 16.609375 -32.75 C 21.171875 -32.75 24.816406 -31.285156 27.546875 -28.359375 C 30.285156 -25.441406 31.65625 -21.023438 31.65625 -15.109375 L 31.65625 -13.671875 L 9.78125 -13.671875 C 10.050781 -8.472656 12.546875 -5.875 17.265625 -5.875 Z M 16.484375 -25.84375 C 12.648438 -25.84375 10.492188 -23.601562 10.015625 -19.125 L 23.03125 -19.125 C 22.832031 -21.207031 22.148438 -22.847656 20.984375 -24.046875 C 19.828125 -25.242188 18.328125 -25.84375 16.484375 -25.84375 Z M 16.484375 -25.84375 "/></g></g></g><g fill="#141414" fill-opacity="1"><g transform="translate(100.894769, 318.969883)"><g><path d="M 31.609375 -1.265625 L 31.609375 0 L 22.546875 0 C 22.066406 -1.394531 21.804688 -2.65625 21.765625 -3.78125 C 20.242188 -2.132812 18.664062 -0.953125 17.03125 -0.234375 C 15.394531 0.484375 13.535156 0.84375 11.453125 0.84375 C 8.535156 0.84375 6.1875 0.00390625 4.40625 -1.671875 C 2.625 -3.359375 1.734375 -5.617188 1.734375 -8.453125 C 1.734375 -11.128906 2.460938 -13.359375 3.921875 -15.140625 C 5.378906 -16.921875 7.988281 -18.128906 11.75 -18.765625 L 17.75 -19.671875 C 19.269531 -19.910156 20.28125 -20.207031 20.78125 -20.5625 C 21.28125 -20.925781 21.53125 -21.53125 21.53125 -22.375 C 21.53125 -23.570312 21.097656 -24.476562 20.234375 -25.09375 C 19.378906 -25.71875 17.972656 -26.03125 16.015625 -26.03125 C 12.859375 -26.03125 11.140625 -24.550781 10.859375 -21.59375 L 2.765625 -21.59375 C 3.078125 -25.226562 4.300781 -27.992188 6.4375 -29.890625 C 8.582031 -31.796875 12.035156 -32.75 16.796875 -32.75 C 20.867188 -32.75 24.046875 -31.945312 26.328125 -30.34375 C 28.609375 -28.75 29.75 -26.550781 29.75 -23.75 L 29.75 -5.9375 C 29.75 -4.457031 29.894531 -3.367188 30.1875 -2.671875 C 30.488281 -1.972656 30.960938 -1.503906 31.609375 -1.265625 Z M 21.53125 -11.578125 L 21.53125 -15.53125 C 20.8125 -15.09375 20.03125 -14.742188 19.1875 -14.484375 C 18.351562 -14.222656 17.132812 -13.972656 15.53125 -13.734375 C 13.726562 -13.492188 12.378906 -13.003906 11.484375 -12.265625 C 10.585938 -11.523438 10.140625 -10.4375 10.140625 -9 C 10.140625 -7.832031 10.5 -6.898438 11.21875 -6.203125 C 11.9375 -5.503906 12.875 -5.15625 14.03125 -5.15625 C 15.269531 -5.15625 16.46875 -5.425781 17.625 -5.96875 C 18.789062 -6.507812 19.734375 -7.269531 20.453125 -8.25 C 21.171875 -9.226562 21.53125 -10.335938 21.53125 -11.578125 Z M 21.53125 -11.578125 "/></g></g></g><g fill="#141414" fill-opacity="1"><g transform="translate(132.679228, 318.969883)"><g><path d="M 29.921875 -27.640625 C 32.117188 -31.046875 34.957031 -32.75 38.4375 -32.75 C 40.675781 -32.75 42.632812 -32.296875 44.3125 -31.390625 C 45.988281 -30.492188 47.273438 -29.242188 48.171875 -27.640625 C 49.078125 -26.046875 49.53125 -24.25 49.53125 -22.25 L 49.53125 0 L 41.140625 0 L 41.140625 -19.609375 C 41.140625 -21.691406 40.71875 -23.222656 39.875 -24.203125 C 39.039062 -25.179688 37.921875 -25.671875 36.515625 -25.671875 C 34.515625 -25.671875 33.078125 -25.078125 32.203125 -23.890625 C 31.328125 -22.710938 30.890625 -21.144531 30.890625 -19.1875 L 30.890625 0 L 22.484375 0 L 22.484375 -19.796875 C 22.484375 -21.910156 22.070312 -23.414062 21.25 -24.3125 C 20.4375 -25.21875 19.171875 -25.671875 17.453125 -25.671875 C 15.734375 -25.671875 14.429688 -25.140625 13.546875 -24.078125 C 12.671875 -23.015625 12.234375 -21.546875 12.234375 -19.671875 L 12.234375 0 L 3.84375 0 L 3.84375 -31.90625 L 11.875 -31.90625 L 11.875 -27.21875 L 12 -27.21875 C 13.875 -30.90625 16.890625 -32.75 21.046875 -32.75 C 23.085938 -32.75 24.785156 -32.378906 26.140625 -31.640625 C 27.503906 -30.898438 28.765625 -29.566406 29.921875 -27.640625 Z M 29.921875 -27.640625 "/></g></g></g><g fill="#141414" fill-opacity="1"><g transform="translate(184.433917, 318.969883)"><g/></g></g><g fill="#141414" fill-opacity="1"><g transform="translate(199.54652, 318.969883)"><g><path d="M 4.140625 0 L 4.140625 -43.0625 L 12.53125 -43.0625 L 12.53125 0 Z M 4.140625 0 "/></g></g></g><g fill="#141414" fill-opacity="1"><g transform="translate(214.659124, 318.969883)"><g><path d="M 17.265625 -5.875 C 18.503906 -5.875 19.632812 -6.171875 20.65625 -6.765625 C 21.675781 -7.367188 22.347656 -8.234375 22.671875 -9.359375 L 31.296875 -9.359375 C 30.378906 -6.117188 28.679688 -3.609375 26.203125 -1.828125 C 23.722656 -0.046875 20.742188 0.84375 17.265625 0.84375 C 11.992188 0.84375 8.023438 -0.613281 5.359375 -3.53125 C 2.703125 -6.457031 1.375 -10.796875 1.375 -16.546875 C 1.375 -19.703125 1.960938 -22.5 3.140625 -24.9375 C 4.328125 -27.382812 6.054688 -29.296875 8.328125 -30.671875 C 10.609375 -32.054688 13.367188 -32.75 16.609375 -32.75 C 21.171875 -32.75 24.816406 -31.285156 27.546875 -28.359375 C 30.285156 -25.441406 31.65625 -21.023438 31.65625 -15.109375 L 31.65625 -13.671875 L 9.78125 -13.671875 C 10.050781 -8.472656 12.546875 -5.875 17.265625 -5.875 Z M 16.484375 -25.84375 C 12.648438 -25.84375 10.492188 -23.601562 10.015625 -19.125 L 23.03125 -19.125 C 22.832031 -21.207031 22.148438 -22.847656 20.984375 -24.046875 C 19.828125 -25.242188 18.328125 -25.84375 16.484375 -25.84375 Z M 16.484375 -25.84375 "/></g></g></g><g fill="#141414" fill-opacity="1"><g transform="translate(246.443594, 318.969883)"><g><path d="M 31.609375 -1.265625 L 31.609375 0 L 22.546875 0 C 22.066406 -1.394531 21.804688 -2.65625 21.765625 -3.78125 C 20.242188 -2.132812 18.664062 -0.953125 17.03125 -0.234375 C 15.394531 0.484375 13.535156 0.84375 11.453125 0.84375 C 8.535156 0.84375 6.1875 0.00390625 4.40625 -1.671875 C 2.625 -3.359375 1.734375 -5.617188 1.734375 -8.453125 C 1.734375 -11.128906 2.460938 -13.359375 3.921875 -15.140625 C 5.378906 -16.921875 7.988281 -18.128906 11.75 -18.765625 L 17.75 -19.671875 C 19.269531 -19.910156 20.28125 -20.207031 20.78125 -20.5625 C 21.28125 -20.925781 21.53125 -21.53125 21.53125 -22.375 C 21.53125 -23.570312 21.097656 -24.476562 20.234375 -25.09375 C 19.378906 -25.71875 17.972656 -26.03125 16.015625 -26.03125 C 12.859375 -26.03125 11.140625 -24.550781 10.859375 -21.59375 L 2.765625 -21.59375 C 3.078125 -25.226562 4.300781 -27.992188 6.4375 -29.890625 C 8.582031 -31.796875 12.035156 -32.75 16.796875 -32.75 C 20.867188 -32.75 24.046875 -31.945312 26.328125 -30.34375 C 28.609375 -28.75 29.75 -26.550781 29.75 -23.75 L 29.75 -5.9375 C 29.75 -4.457031 29.894531 -3.367188 30.1875 -2.671875 C 30.488281 -1.972656 30.960938 -1.503906 31.609375 -1.265625 Z M 21.53125 -11.578125 L 21.53125 -15.53125 C 20.8125 -15.09375 20.03125 -14.742188 19.1875 -14.484375 C 18.351562 -14.222656 17.132812 -13.972656 15.53125 -13.734375 C 13.726562 -13.492188 12.378906 -13.003906 11.484375 -12.265625 C 10.585938 -11.523438 10.140625 -10.4375 10.140625 -9 C 10.140625 -7.832031 10.5 -6.898438 11.21875 -6.203125 C 11.9375 -5.503906 12.875 -5.15625 14.03125 -5.15625 C 15.269531 -5.15625 16.46875 -5.425781 17.625 -5.96875 C 18.789062 -6.507812 19.734375 -7.269531 20.453125 -8.25 C 21.171875 -9.226562 21.53125 -10.335938 21.53125 -11.578125 Z M 21.53125 -11.578125 "/></g></g></g><g fill="#141414" fill-opacity="1"><g transform="translate(278.228053, 318.969883)"><g><path d="M 24.828125 0 L 24.828125 -4.015625 L 24.703125 -4.015625 C 23.703125 -2.335938 22.390625 -1.109375 20.765625 -0.328125 C 19.148438 0.453125 17.382812 0.84375 15.46875 0.84375 C 12.707031 0.84375 10.316406 0.125 8.296875 -1.3125 C 6.285156 -2.757812 4.738281 -4.769531 3.65625 -7.34375 C 2.570312 -9.925781 2.03125 -12.914062 2.03125 -16.3125 C 2.03125 -19.625 2.585938 -22.519531 3.703125 -25 C 4.828125 -27.476562 6.398438 -29.390625 8.421875 -30.734375 C 10.441406 -32.078125 12.734375 -32.75 15.296875 -32.75 C 17.328125 -32.75 19.125 -32.316406 20.6875 -31.453125 C 22.25 -30.597656 23.53125 -29.367188 24.53125 -27.765625 L 24.640625 -27.765625 L 24.640625 -43.0625 L 33.046875 -43.0625 L 33.046875 0 Z M 25 -15.234375 C 25 -18.515625 24.390625 -21.039062 23.171875 -22.8125 C 21.953125 -24.59375 20.144531 -25.484375 17.75 -25.484375 C 15.507812 -25.484375 13.769531 -24.632812 12.53125 -22.9375 C 11.289062 -21.238281 10.671875 -18.847656 10.671875 -15.765625 C 10.671875 -12.929688 11.289062 -10.601562 12.53125 -8.78125 C 13.769531 -6.96875 15.453125 -6.0625 17.578125 -6.0625 C 19.847656 -6.0625 21.648438 -6.890625 22.984375 -8.546875 C 24.328125 -10.203125 25 -12.429688 25 -15.234375 Z M 25 -15.234375 "/></g></g></g><g fill="#141414" fill-opacity="1"><g transform="translate(313.310875, 318.969883)"><g><path d="M 17.265625 -5.875 C 18.503906 -5.875 19.632812 -6.171875 20.65625 -6.765625 C 21.675781 -7.367188 22.347656 -8.234375 22.671875 -9.359375 L 31.296875 -9.359375 C 30.378906 -6.117188 28.679688 -3.609375 26.203125 -1.828125 C 23.722656 -0.046875 20.742188 0.84375 17.265625 0.84375 C 11.992188 0.84375 8.023438 -0.613281 5.359375 -3.53125 C 2.703125 -6.457031 1.375 -10.796875 1.375 -16.546875 C 1.375 -19.703125 1.960938 -22.5 3.140625 -24.9375 C 4.328125 -27.382812 6.054688 -29.296875 8.328125 -30.671875 C 10.609375 -32.054688 13.367188 -32.75 16.609375 -32.75 C 21.171875 -32.75 24.816406 -31.285156 27.546875 -28.359375 C 30.285156 -25.441406 31.65625 -21.023438 31.65625 -15.109375 L 31.65625 -13.671875 L 9.78125 -13.671875 C 10.050781 -8.472656 12.546875 -5.875 17.265625 -5.875 Z M 16.484375 -25.84375 C 12.648438 -25.84375 10.492188 -23.601562 10.015625 -19.125 L 23.03125 -19.125 C 22.832031 -21.207031 22.148438 -22.847656 20.984375 -24.046875 C 19.828125 -25.242188 18.328125 -25.84375 16.484375 -25.84375 Z M 16.484375 -25.84375 "/></g></g></g><g fill="#141414" fill-opacity="1"><g transform="translate(345.095334, 318.969883)"><g><path d="M 22.375 -32.625 L 22.375 -24.109375 C 21.726562 -24.191406 20.96875 -24.234375 20.09375 -24.234375 C 14.851562 -24.234375 12.234375 -21.753906 12.234375 -16.796875 L 12.234375 0 L 3.84375 0 L 3.84375 -31.90625 L 11.875 -31.90625 L 11.875 -26.390625 L 12 -26.390625 C 13.195312 -28.742188 14.472656 -30.390625 15.828125 -31.328125 C 17.191406 -32.273438 18.832031 -32.75 20.75 -32.75 C 20.945312 -32.75 21.488281 -32.707031 22.375 -32.625 Z M 22.375 -32.625 "/></g></g></g><g fill="#141414" fill-opacity="1"><g transform="translate(34.027466, 425.642847)"><g><path d="M 22.671875 -36.40625 C 19.347656 -36.40625 16.707031 -35.101562 14.75 -32.5 C 12.789062 -29.90625 11.8125 -26.207031 11.8125 -21.40625 C 11.8125 -16.882812 12.738281 -13.296875 14.59375 -10.640625 C 16.457031 -7.984375 19.085938 -6.65625 22.484375 -6.65625 C 25.003906 -6.65625 27.082031 -7.34375 28.71875 -8.71875 C 30.363281 -10.101562 31.460938 -12.113281 32.015625 -14.75 L 41.015625 -14.75 C 40.015625 -9.632812 37.882812 -5.707031 34.625 -2.96875 C 31.375 -0.226562 27.269531 1.140625 22.3125 1.140625 C 18.3125 1.140625 14.832031 0.234375 11.875 -1.578125 C 8.914062 -3.398438 6.632812 -6.007812 5.03125 -9.40625 C 3.4375 -12.8125 2.640625 -16.832031 2.640625 -21.46875 C 2.640625 -26.101562 3.46875 -30.128906 5.125 -33.546875 C 6.78125 -36.972656 9.109375 -39.601562 12.109375 -41.4375 C 15.109375 -43.28125 18.566406 -44.203125 22.484375 -44.203125 C 25.878906 -44.203125 28.9375 -43.539062 31.65625 -42.21875 C 34.375 -40.894531 36.539062 -39.082031 38.15625 -36.78125 C 39.78125 -34.488281 40.734375 -31.882812 41.015625 -28.96875 L 32.015625 -28.96875 C 30.859375 -33.925781 27.742188 -36.40625 22.671875 -36.40625 Z M 22.671875 -36.40625 "/></g></g></g><g fill="#141414" fill-opacity="1"><g transform="translate(75.767054, 425.642847)"><g><path d="M 34.65625 -15.953125 C 34.65625 -12.515625 33.972656 -9.535156 32.609375 -7.015625 C 31.253906 -4.492188 29.335938 -2.550781 26.859375 -1.1875 C 24.378906 0.164062 21.539062 0.84375 18.34375 0.84375 C 15.144531 0.84375 12.304688 0.164062 9.828125 -1.1875 C 7.347656 -2.550781 5.425781 -4.492188 4.0625 -7.015625 C 2.707031 -9.535156 2.03125 -12.515625 2.03125 -15.953125 C 2.03125 -19.390625 2.71875 -22.375 4.09375 -24.90625 C 5.476562 -27.445312 7.410156 -29.390625 9.890625 -30.734375 C 12.367188 -32.078125 15.1875 -32.75 18.34375 -32.75 C 21.539062 -32.75 24.378906 -32.066406 26.859375 -30.703125 C 29.335938 -29.347656 31.253906 -27.410156 32.609375 -24.890625 C 33.972656 -22.367188 34.65625 -19.390625 34.65625 -15.953125 Z M 18.34375 -6.234375 C 20.90625 -6.234375 22.828125 -7.082031 24.109375 -8.78125 C 25.390625 -10.476562 26.03125 -12.867188 26.03125 -15.953125 C 26.03125 -19.023438 25.378906 -21.410156 24.078125 -23.109375 C 22.773438 -24.816406 20.847656 -25.671875 18.296875 -25.671875 C 15.847656 -25.671875 13.960938 -24.828125 12.640625 -23.140625 C 11.328125 -21.460938 10.671875 -19.066406 10.671875 -15.953125 C 10.671875 -12.796875 11.320312 -10.382812 12.625 -8.71875 C 13.925781 -7.0625 15.832031 -6.234375 18.34375 -6.234375 Z M 18.34375 -6.234375 "/></g></g></g><g fill="#141414" fill-opacity="1"><g transform="translate(110.849899, 425.642847)"><g><path d="M 29.921875 -27.640625 C 32.117188 -31.046875 34.957031 -32.75 38.4375 -32.75 C 40.675781 -32.75 42.632812 -32.296875 44.3125 -31.390625 C 45.988281 -30.492188 47.273438 -29.242188 48.171875 -27.640625 C 49.078125 -26.046875 49.53125 -24.25 49.53125 -22.25 L 49.53125 0 L 41.140625 0 L 41.140625 -19.609375 C 41.140625 -21.691406 40.71875 -23.222656 39.875 -24.203125 C 39.039062 -25.179688 37.921875 -25.671875 36.515625 -25.671875 C 34.515625 -25.671875 33.078125 -25.078125 32.203125 -23.890625 C 31.328125 -22.710938 30.890625 -21.144531 30.890625 -19.1875 L 30.890625 0 L 22.484375 0 L 22.484375 -19.796875 C 22.484375 -21.910156 22.070312 -23.414062 21.25 -24.3125 C 20.4375 -25.21875 19.171875 -25.671875 17.453125 -25.671875 C 15.734375 -25.671875 14.429688 -25.140625 13.546875 -24.078125 C 12.671875 -23.015625 12.234375 -21.546875 12.234375 -19.671875 L 12.234375 0 L 3.84375 0 L 3.84375 -31.90625 L 11.875 -31.90625 L 11.875 -27.21875 L 12 -27.21875 C 13.875 -30.90625 16.890625 -32.75 21.046875 -32.75 C 23.085938 -32.75 24.785156 -32.378906 26.140625 -31.640625 C 27.503906 -30.898438 28.765625 -29.566406 29.921875 -27.640625 Z M 29.921875 -27.640625 "/></g></g></g><g fill="#141414" fill-opacity="1"><g transform="translate(162.604587, 425.642847)"><g><path d="M 29.921875 -27.640625 C 32.117188 -31.046875 34.957031 -32.75 38.4375 -32.75 C 40.675781 -32.75 42.632812 -32.296875 44.3125 -31.390625 C 45.988281 -30.492188 47.273438 -29.242188 48.171875 -27.640625 C 49.078125 -26.046875 49.53125 -24.25 49.53125 -22.25 L 49.53125 0 L 41.140625 0 L 41.140625 -19.609375 C 41.140625 -21.691406 40.71875 -23.222656 39.875 -24.203125 C 39.039062 -25.179688 37.921875 -25.671875 36.515625 -25.671875 C 34.515625 -25.671875 33.078125 -25.078125 32.203125 -23.890625 C 31.328125 -22.710938 30.890625 -21.144531 30.890625 -19.1875 L 30.890625 0 L 22.484375 0 L 22.484375 -19.796875 C 22.484375 -21.910156 22.070312 -23.414062 21.25 -24.3125 C 20.4375 -25.21875 19.171875 -25.671875 17.453125 -25.671875 C 15.734375 -25.671875 14.429688 -25.140625 13.546875 -24.078125 C 12.671875 -23.015625 12.234375 -21.546875 12.234375 -19.671875 L 12.234375 0 L 3.84375 0 L 3.84375 -31.90625 L 11.875 -31.90625 L 11.875 -27.21875 L 12 -27.21875 C 13.875 -30.90625 16.890625 -32.75 21.046875 -32.75 C 23.085938 -32.75 24.785156 -32.378906 26.140625 -31.640625 C 27.503906 -30.898438 28.765625 -29.566406 29.921875 -27.640625 Z M 29.921875 -27.640625 "/></g></g></g><g fill="#141414" fill-opacity="1"><g transform="translate(213.159856, 425.642847)"><g><path d="M 17.8125 -6.234375 C 19.726562 -6.234375 21.285156 -6.882812 22.484375 -8.1875 C 23.679688 -9.488281 24.28125 -11.195312 24.28125 -13.3125 L 24.28125 -31.90625 L 32.6875 -31.90625 L 32.6875 0 L 24.640625 0 L 24.640625 -4.5 L 24.53125 -4.5 C 22.445312 -0.9375 19.207031 0.84375 14.8125 0.84375 C 11.375 0.84375 8.703125 -0.175781 6.796875 -2.21875 C 4.898438 -4.257812 3.953125 -7.078125 3.953125 -10.671875 L 3.953125 -31.90625 L 12.359375 -31.90625 L 12.359375 -11.9375 C 12.359375 -10.09375 12.816406 -8.679688 13.734375 -7.703125 C 14.648438 -6.722656 16.007812 -6.234375 17.8125 -6.234375 Z M 17.8125 -6.234375 "/></g></g></g><g fill="#141414" fill-opacity="1"><g transform="translate(248.242689, 425.642847)"><g><path d="M 32.75 -22.3125 L 32.75 0 L 24.34375 0 L 24.34375 -20.203125 C 24.34375 -21.960938 23.875 -23.3125 22.9375 -24.25 C 22 -25.195312 20.648438 -25.671875 18.890625 -25.671875 C 16.929688 -25.671875 15.34375 -25.03125 14.125 -23.75 C 12.90625 -22.46875 12.296875 -20.726562 12.296875 -18.53125 L 12.296875 0 L 3.890625 0 L 3.890625 -31.90625 L 11.9375 -31.90625 L 11.9375 -27.21875 L 12.046875 -27.21875 C 13.046875 -29.101562 14.363281 -30.492188 16 -31.390625 C 17.644531 -32.296875 19.53125 -32.75 21.65625 -32.75 C 23.851562 -32.75 25.789062 -32.296875 27.46875 -31.390625 C 29.144531 -30.492188 30.441406 -29.253906 31.359375 -27.671875 C 32.285156 -26.097656 32.75 -24.3125 32.75 -22.3125 Z M 32.75 -22.3125 "/></g></g></g><g fill="#141414" fill-opacity="1"><g transform="translate(283.325557, 425.642847)"><g><path d="M 4.140625 -35.6875 L 4.140625 -43.484375 L 12.53125 -43.484375 L 12.53125 -35.6875 Z M 4.140625 0 L 4.140625 -31.90625 L 12.53125 -31.90625 L 12.53125 0 Z M 4.140625 0 "/></g></g></g><g fill="#141414" fill-opacity="1"><g transform="translate(298.43816, 425.642847)"><g><path d="M 17.515625 -25.671875 C 15.273438 -25.671875 13.570312 -24.828125 12.40625 -23.140625 C 11.25 -21.460938 10.671875 -19.066406 10.671875 -15.953125 C 10.671875 -12.316406 11.25 -9.757812 12.40625 -8.28125 C 13.570312 -6.800781 15.15625 -6.0625 17.15625 -6.0625 C 18.707031 -6.0625 20.003906 -6.585938 21.046875 -7.640625 C 22.085938 -8.703125 22.6875 -10.035156 22.84375 -11.640625 L 31.359375 -11.640625 C 30.835938 -7.953125 29.335938 -4.945312 26.859375 -2.625 C 24.378906 -0.3125 21.023438 0.84375 16.796875 0.84375 C 11.992188 0.84375 8.332031 -0.582031 5.8125 -3.4375 C 3.289062 -6.300781 2.03125 -10.171875 2.03125 -15.046875 C 2.03125 -20.765625 3.347656 -25.144531 5.984375 -28.1875 C 8.628906 -31.226562 12.410156 -32.75 17.328125 -32.75 C 19.890625 -32.75 22.207031 -32.265625 24.28125 -31.296875 C 26.363281 -30.335938 28.035156 -28.925781 29.296875 -27.0625 C 30.554688 -25.207031 31.265625 -23.023438 31.421875 -20.515625 L 22.90625 -20.515625 C 22.664062 -22.066406 22.09375 -23.3125 21.1875 -24.25 C 20.289062 -25.195312 19.066406 -25.671875 17.515625 -25.671875 Z M 17.515625 -25.671875 "/></g></g></g><g fill="#141414" fill-opacity="1"><g transform="translate(330.222619, 425.642847)"><g><path d="M 31.609375 -1.265625 L 31.609375 0 L 22.546875 0 C 22.066406 -1.394531 21.804688 -2.65625 21.765625 -3.78125 C 20.242188 -2.132812 18.664062 -0.953125 17.03125 -0.234375 C 15.394531 0.484375 13.535156 0.84375 11.453125 0.84375 C 8.535156 0.84375 6.1875 0.00390625 4.40625 -1.671875 C 2.625 -3.359375 1.734375 -5.617188 1.734375 -8.453125 C 1.734375 -11.128906 2.460938 -13.359375 3.921875 -15.140625 C 5.378906 -16.921875 7.988281 -18.128906 11.75 -18.765625 L 17.75 -19.671875 C 19.269531 -19.910156 20.28125 -20.207031 20.78125 -20.5625 C 21.28125 -20.925781 21.53125 -21.53125 21.53125 -22.375 C 21.53125 -23.570312 21.097656 -24.476562 20.234375 -25.09375 C 19.378906 -25.71875 17.972656 -26.03125 16.015625 -26.03125 C 12.859375 -26.03125 11.140625 -24.550781 10.859375 -21.59375 L 2.765625 -21.59375 C 3.078125 -25.226562 4.300781 -27.992188 6.4375 -29.890625 C 8.582031 -31.796875 12.035156 -32.75 16.796875 -32.75 C 20.867188 -32.75 24.046875 -31.945312 26.328125 -30.34375 C 28.609375 -28.75 29.75 -26.550781 29.75 -23.75 L 29.75 -5.9375 C 29.75 -4.457031 29.894531 -3.367188 30.1875 -2.671875 C 30.488281 -1.972656 30.960938 -1.503906 31.609375 -1.265625 Z M 21.53125 -11.578125 L 21.53125 -15.53125 C 20.8125 -15.09375 20.03125 -14.742188 19.1875 -14.484375 C 18.351562 -14.222656 17.132812 -13.972656 15.53125 -13.734375 C 13.726562 -13.492188 12.378906 -13.003906 11.484375 -12.265625 C 10.585938 -11.523438 10.140625 -10.4375 10.140625 -9 C 10.140625 -7.832031 10.5 -6.898438 11.21875 -6.203125 C 11.9375 -5.503906 12.875 -5.15625 14.03125 -5.15625 C 15.269531 -5.15625 16.46875 -5.425781 17.625 -5.96875 C 18.789062 -6.507812 19.734375 -7.269531 20.453125 -8.25 C 21.171875 -9.226562 21.53125 -10.335938 21.53125 -11.578125 Z M 21.53125 -11.578125 "/></g></g></g><g fill="#141414" fill-opacity="1"><g transform="translate(362.007078, 425.642847)"><g><path d="M 18.53125 -31.90625 L 18.53125 -25.90625 L 13.3125 -25.90625 L 13.3125 -8.09375 C 13.3125 -7.257812 13.539062 -6.703125 14 -6.421875 C 14.457031 -6.140625 15.367188 -6 16.734375 -6 C 17.054688 -6 17.65625 -6.035156 18.53125 -6.109375 L 18.53125 0.234375 C 16.289062 0.316406 14.789062 0.359375 14.03125 0.359375 C 11.46875 0.359375 9.523438 0.0859375 8.203125 -0.453125 C 6.890625 -0.992188 6.015625 -1.753906 5.578125 -2.734375 C 5.140625 -3.710938 4.921875 -5 4.921875 -6.59375 L 4.921875 -25.90625 L 0.59375 -25.90625 L 0.59375 -31.90625 L 4.921875 -31.90625 L 4.921875 -40.53125 L 13.3125 -40.53125 L 13.3125 -31.90625 Z M 18.53125 -31.90625 "/></g></g></g><g fill="#141414" fill-opacity="1"><g transform="translate(380.418044, 425.642847)"><g><path d="M 4.140625 -35.6875 L 4.140625 -43.484375 L 12.53125 -43.484375 L 12.53125 -35.6875 Z M 4.140625 0 L 4.140625 -31.90625 L 12.53125 -31.90625 L 12.53125 0 Z M 4.140625 0 "/></g></g></g><g fill="#141414" fill-opacity="1"><g transform="translate(395.530648, 425.642847)"><g><path d="M 34.65625 -15.953125 C 34.65625 -12.515625 33.972656 -9.535156 32.609375 -7.015625 C 31.253906 -4.492188 29.335938 -2.550781 26.859375 -1.1875 C 24.378906 0.164062 21.539062 0.84375 18.34375 0.84375 C 15.144531 0.84375 12.304688 0.164062 9.828125 -1.1875 C 7.347656 -2.550781 5.425781 -4.492188 4.0625 -7.015625 C 2.707031 -9.535156 2.03125 -12.515625 2.03125 -15.953125 C 2.03125 -19.390625 2.71875 -22.375 4.09375 -24.90625 C 5.476562 -27.445312 7.410156 -29.390625 9.890625 -30.734375 C 12.367188 -32.078125 15.1875 -32.75 18.34375 -32.75 C 21.539062 -32.75 24.378906 -32.066406 26.859375 -30.703125 C 29.335938 -29.347656 31.253906 -27.410156 32.609375 -24.890625 C 33.972656 -22.367188 34.65625 -19.390625 34.65625 -15.953125 Z M 18.34375 -6.234375 C 20.90625 -6.234375 22.828125 -7.082031 24.109375 -8.78125 C 25.390625 -10.476562 26.03125 -12.867188 26.03125 -15.953125 C 26.03125 -19.023438 25.378906 -21.410156 24.078125 -23.109375 C 22.773438 -24.816406 20.847656 -25.671875 18.296875 -25.671875 C 15.847656 -25.671875 13.960938 -24.828125 12.640625 -23.140625 C 11.328125 -21.460938 10.671875 -19.066406 10.671875 -15.953125 C 10.671875 -12.796875 11.320312 -10.382812 12.625 -8.71875 C 13.925781 -7.0625 15.832031 -6.234375 18.34375 -6.234375 Z M 18.34375 -6.234375 "/></g></g></g><g fill="#141414" fill-opacity="1"><g transform="translate(430.613516, 425.642847)"><g><path d="M 32.75 -22.3125 L 32.75 0 L 24.34375 0 L 24.34375 -20.203125 C 24.34375 -21.960938 23.875 -23.3125 22.9375 -24.25 C 22 -25.195312 20.648438 -25.671875 18.890625 -25.671875 C 16.929688 -25.671875 15.34375 -25.03125 14.125 -23.75 C 12.90625 -22.46875 12.296875 -20.726562 12.296875 -18.53125 L 12.296875 0 L 3.890625 0 L 3.890625 -31.90625 L 11.9375 -31.90625 L 11.9375 -27.21875 L 12.046875 -27.21875 C 13.046875 -29.101562 14.363281 -30.492188 16 -31.390625 C 17.644531 -32.296875 19.53125 -32.75 21.65625 -32.75 C 23.851562 -32.75 25.789062 -32.296875 27.46875 -31.390625 C 29.144531 -30.492188 30.441406 -29.253906 31.359375 -27.671875 C 32.285156 -26.097656 32.75 -24.3125 32.75 -22.3125 Z M 32.75 -22.3125 "/></g></g></g><g fill="#141414" fill-opacity="1"><g transform="translate(34.027466, 532.315769)"><g><path d="M 30.828125 -13.078125 L 30.828125 -43.0625 L 39.21875 -43.0625 L 39.21875 0 L 30.21875 0 L 12.65625 -30.703125 L 12.53125 -30.703125 L 12.53125 0 L 4.140625 0 L 4.140625 -43.0625 L 13.609375 -43.0625 L 30.703125 -13.078125 Z M 30.828125 -13.078125 "/></g></g></g><g fill="#141414" fill-opacity="1"><g transform="translate(75.767054, 532.315769)"><g><path d="M 17.265625 -5.875 C 18.503906 -5.875 19.632812 -6.171875 20.65625 -6.765625 C 21.675781 -7.367188 22.347656 -8.234375 22.671875 -9.359375 L 31.296875 -9.359375 C 30.378906 -6.117188 28.679688 -3.609375 26.203125 -1.828125 C 23.722656 -0.046875 20.742188 0.84375 17.265625 0.84375 C 11.992188 0.84375 8.023438 -0.613281 5.359375 -3.53125 C 2.703125 -6.457031 1.375 -10.796875 1.375 -16.546875 C 1.375 -19.703125 1.960938 -22.5 3.140625 -24.9375 C 4.328125 -27.382812 6.054688 -29.296875 8.328125 -30.671875 C 10.609375 -32.054688 13.367188 -32.75 16.609375 -32.75 C 21.171875 -32.75 24.816406 -31.285156 27.546875 -28.359375 C 30.285156 -25.441406 31.65625 -21.023438 31.65625 -15.109375 L 31.65625 -13.671875 L 9.78125 -13.671875 C 10.050781 -8.472656 12.546875 -5.875 17.265625 -5.875 Z M 16.484375 -25.84375 C 12.648438 -25.84375 10.492188 -23.601562 10.015625 -19.125 L 23.03125 -19.125 C 22.832031 -21.207031 22.148438 -22.847656 20.984375 -24.046875 C 19.828125 -25.242188 18.328125 -25.84375 16.484375 -25.84375 Z M 16.484375 -25.84375 "/></g></g></g><g fill="#141414" fill-opacity="1"><g transform="translate(107.551513, 532.315769)"><g><path d="M 18.53125 -31.90625 L 18.53125 -25.90625 L 13.3125 -25.90625 L 13.3125 -8.09375 C 13.3125 -7.257812 13.539062 -6.703125 14 -6.421875 C 14.457031 -6.140625 15.367188 -6 16.734375 -6 C 17.054688 -6 17.65625 -6.035156 18.53125 -6.109375 L 18.53125 0.234375 C 16.289062 0.316406 14.789062 0.359375 14.03125 0.359375 C 11.46875 0.359375 9.523438 0.0859375 8.203125 -0.453125 C 6.890625 -0.992188 6.015625 -1.753906 5.578125 -2.734375 C 5.140625 -3.710938 4.921875 -5 4.921875 -6.59375 L 4.921875 -25.90625 L 0.59375 -25.90625 L 0.59375 -31.90625 L 4.921875 -31.90625 L 4.921875 -40.53125 L 13.3125 -40.53125 L 13.3125 -31.90625 Z M 18.53125 -31.90625 "/></g></g></g><g fill="#141414" fill-opacity="1"><g transform="translate(125.962502, 532.315769)"><g><path d="M 14.625 -9 L 19.125 -31.90625 L 27.578125 -31.90625 L 32.390625 -9 L 32.5 -9 L 37.484375 -31.90625 L 46.109375 -31.90625 L 36.9375 0 L 28.3125 0 L 23.328125 -23.265625 L 23.203125 -23.265625 L 18.234375 0 L 9.59375 0 L 0.59375 -31.90625 L 9.53125 -31.90625 L 14.515625 -9 Z M 14.625 -9 "/></g></g></g><g fill="#141414" fill-opacity="1"><g transform="translate(169.861029, 532.315769)"><g><path d="M 34.65625 -15.953125 C 34.65625 -12.515625 33.972656 -9.535156 32.609375 -7.015625 C 31.253906 -4.492188 29.335938 -2.550781 26.859375 -1.1875 C 24.378906 0.164062 21.539062 0.84375 18.34375 0.84375 C 15.144531 0.84375 12.304688 0.164062 9.828125 -1.1875 C 7.347656 -2.550781 5.425781 -4.492188 4.0625 -7.015625 C 2.707031 -9.535156 2.03125 -12.515625 2.03125 -15.953125 C 2.03125 -19.390625 2.71875 -22.375 4.09375 -24.90625 C 5.476562 -27.445312 7.410156 -29.390625 9.890625 -30.734375 C 12.367188 -32.078125 15.1875 -32.75 18.34375 -32.75 C 21.539062 -32.75 24.378906 -32.066406 26.859375 -30.703125 C 29.335938 -29.347656 31.253906 -27.410156 32.609375 -24.890625 C 33.972656 -22.367188 34.65625 -19.390625 34.65625 -15.953125 Z M 18.34375 -6.234375 C 20.90625 -6.234375 22.828125 -7.082031 24.109375 -8.78125 C 25.390625 -10.476562 26.03125 -12.867188 26.03125 -15.953125 C 26.03125 -19.023438 25.378906 -21.410156 24.078125 -23.109375 C 22.773438 -24.816406 20.847656 -25.671875 18.296875 -25.671875 C 15.847656 -25.671875 13.960938 -24.828125 12.640625 -23.140625 C 11.328125 -21.460938 10.671875 -19.066406 10.671875 -15.953125 C 10.671875 -12.796875 11.320312 -10.382812 12.625 -8.71875 C 13.925781 -7.0625 15.832031 -6.234375 18.34375 -6.234375 Z M 18.34375 -6.234375 "/></g></g></g><g fill="#141414" fill-opacity="1"><g transform="translate(204.943873, 532.315769)"><g><path d="M 22.375 -32.625 L 22.375 -24.109375 C 21.726562 -24.191406 20.96875 -24.234375 20.09375 -24.234375 C 14.851562 -24.234375 12.234375 -21.753906 12.234375 -16.796875 L 12.234375 0 L 3.84375 0 L 3.84375 -31.90625 L 11.875 -31.90625 L 11.875 -26.390625 L 12 -26.390625 C 13.195312 -28.742188 14.472656 -30.390625 15.828125 -31.328125 C 17.191406 -32.273438 18.832031 -32.75 20.75 -32.75 C 20.945312 -32.75 21.488281 -32.707031 22.375 -32.625 Z M 22.375 -32.625 "/></g></g></g><g fill="#141414" fill-opacity="1"><g transform="translate(226.71322, 532.315769)"><g><path d="M 23.09375 -31.90625 L 33.40625 -31.90625 L 22.125 -19.546875 L 33.703125 0 L 23.625 0 L 16.015625 -13.671875 L 12.53125 -10.078125 L 12.53125 0 L 4.140625 0 L 4.140625 -43.0625 L 12.53125 -43.0625 L 12.53125 -19.796875 Z M 23.09375 -31.90625 "/></g></g></g><g fill="#141414" fill-opacity="1"><g transform="translate(258.497679, 532.315769)"><g><path d="M 4.140625 -35.6875 L 4.140625 -43.484375 L 12.53125 -43.484375 L 12.53125 -35.6875 Z M 4.140625 0 L 4.140625 -31.90625 L 12.53125 -31.90625 L 12.53125 0 Z M 4.140625 0 "/></g></g></g><g fill="#141414" fill-opacity="1"><g transform="translate(273.610282, 532.315769)"><g><path d="M 32.75 -22.3125 L 32.75 0 L 24.34375 0 L 24.34375 -20.203125 C 24.34375 -21.960938 23.875 -23.3125 22.9375 -24.25 C 22 -25.195312 20.648438 -25.671875 18.890625 -25.671875 C 16.929688 -25.671875 15.34375 -25.03125 14.125 -23.75 C 12.90625 -22.46875 12.296875 -20.726562 12.296875 -18.53125 L 12.296875 0 L 3.890625 0 L 3.890625 -31.90625 L 11.9375 -31.90625 L 11.9375 -27.21875 L 12.046875 -27.21875 C 13.046875 -29.101562 14.363281 -30.492188 16 -31.390625 C 17.644531 -32.296875 19.53125 -32.75 21.65625 -32.75 C 23.851562 -32.75 25.789062 -32.296875 27.46875 -31.390625 C 29.144531 -30.492188 30.441406 -29.253906 31.359375 -27.671875 C 32.285156 -26.097656 32.75 -24.3125 32.75 -22.3125 Z M 32.75 -22.3125 "/></g></g></g><g fill="#141414" fill-opacity="1"><g transform="translate(308.693127, 532.315769)"><g><path d="M 25 -27.171875 L 25.125 -27.171875 L 25.125 -31.90625 L 33.15625 -31.90625 L 33.15625 -0.484375 C 33.15625 4.472656 31.71875 7.960938 28.84375 9.984375 C 25.96875 12.003906 22.050781 13.015625 17.09375 13.015625 C 13.09375 13.015625 9.789062 12.144531 7.1875 10.40625 C 4.59375 8.664062 3.238281 6.335938 3.125 3.421875 L 12.234375 3.421875 C 12.472656 4.617188 13.050781 5.457031 13.96875 5.9375 C 14.894531 6.414062 16.253906 6.65625 18.046875 6.65625 C 20.367188 6.65625 22.066406 6.082031 23.140625 4.9375 C 24.222656 3.800781 24.765625 2.015625 24.765625 -0.421875 L 24.765625 -4.5 L 24.640625 -4.625 C 23.566406 -2.863281 22.378906 -1.617188 21.078125 -0.890625 C 19.773438 -0.171875 18.125 0.1875 16.125 0.1875 C 13.375 0.1875 10.957031 -0.472656 8.875 -1.796875 C 6.789062 -3.117188 5.191406 -5.019531 4.078125 -7.5 C 2.960938 -9.976562 2.40625 -12.914062 2.40625 -16.3125 C 2.40625 -19.664062 2.960938 -22.582031 4.078125 -25.0625 C 5.191406 -27.539062 6.75 -29.441406 8.75 -30.765625 C 10.75 -32.085938 13.050781 -32.75 15.65625 -32.75 C 17.894531 -32.75 19.800781 -32.265625 21.375 -31.296875 C 22.957031 -30.335938 24.164062 -28.960938 25 -27.171875 Z M 17.6875 -6.890625 C 20.007812 -6.890625 21.78125 -7.6875 23 -9.28125 C 24.21875 -10.882812 24.828125 -13.164062 24.828125 -16.125 C 24.828125 -18.84375 24.164062 -21.082031 22.84375 -22.84375 C 21.53125 -24.601562 19.773438 -25.484375 17.578125 -25.484375 C 15.535156 -25.484375 13.929688 -24.625 12.765625 -22.90625 C 11.609375 -21.1875 11.03125 -18.828125 11.03125 -15.828125 C 11.03125 -13.066406 11.628906 -10.882812 12.828125 -9.28125 C 14.023438 -7.6875 15.644531 -6.890625 17.6875 -6.890625 Z M 17.6875 -6.890625 "/></g></g></g><path stroke-linecap="butt" transform="matrix(0.749634, -0.000000000000000093, 0.000000000000000093, 0.749634, 34.027466, 230.063246)" fill="none" stroke-linejoin="miter" d="M -0.000163555 1.999981 L 1278.863309 1.999981 " stroke="#000000" stroke-width="4" stroke-opacity="1" stroke-miterlimit="4"/><path stroke-linecap="butt" transform="matrix(0.749634, -0.000000000000000093, 0.000000000000000093, 0.749634, 34.027466, 338.160545)" fill="none" stroke-linejoin="miter" d="M -0.000163555 2.000457 L 1278.863309 2.000457 " stroke="#000000" stroke-width="4" stroke-opacity="1" stroke-miterlimit="4"/><path stroke-linecap="butt" transform="matrix(0.749634, 0, 0, 0.749634, 34.027466, 444.833468)" fill="none" stroke-linejoin="miter" d="M -0.000163555 1.99906 L 1278.863309 1.99906 " stroke="#000000" stroke-width="4" stroke-opacity="1" stroke-miterlimit="4"/><path stroke-linecap="butt" transform="matrix(0.749634, 0, 0, 0.749634, 34.027466, 551.506475)" fill="none" stroke-linejoin="miter" d="M -0.000163555 1.99755 L 1278.863309 1.99755 " stroke="#000000" stroke-width="4" stroke-opacity="1" stroke-miterlimit="4"/><g clip-path="url(#890f747d6b)"><g clip-path="url(#9e06ff0b3d)"><g clip-path="url(#aca34e4583)"><g clip-path="url(#b920f41777)"><path fill="#000000" d="M 101.203125 28.933594 C 100.355469 28.089844 99.46875 27.28125 98.550781 26.511719 C 97.632812 25.742188 96.679688 25.015625 95.695312 24.335938 C 94.710938 23.652344 93.699219 23.011719 92.65625 22.417969 C 91.617188 21.824219 90.550781 21.28125 89.460938 20.78125 C 88.371094 20.28125 87.261719 19.835938 86.132812 19.433594 C 85.003906 19.035156 83.855469 18.6875 82.695312 18.390625 C 81.535156 18.09375 80.363281 17.847656 79.179688 17.65625 C 78 17.460938 76.808594 17.320312 75.613281 17.234375 C 74.421875 17.148438 73.222656 17.113281 72.027344 17.132812 C 70.828125 17.15625 69.632812 17.226562 68.441406 17.355469 C 67.25 17.480469 66.066406 17.660156 64.890625 17.890625 C 63.714844 18.121094 62.554688 18.40625 61.402344 18.742188 C 60.253906 19.078125 59.121094 19.464844 58.003906 19.898438 C 56.890625 20.335938 55.796875 20.820312 54.722656 21.355469 C 53.652344 21.890625 52.605469 22.472656 51.585938 23.097656 C 50.5625 23.726562 49.574219 24.398438 48.613281 25.113281 L 80.925781 57.421875 L 80.917969 37.097656 L 92.570312 37.101562 L 92.578125 71.488281 L 92.578125 77.3125 L 86.753906 77.3125 L 52.367188 77.304688 L 52.363281 65.652344 L 72.6875 65.65625 L 40.378906 33.347656 C 39.664062 34.308594 38.992188 35.300781 38.363281 36.320312 C 37.734375 37.339844 37.15625 38.386719 36.621094 39.457031 C 36.085938 40.53125 35.601562 41.625 35.164062 42.738281 C 34.730469 43.855469 34.34375 44.988281 34.007812 46.136719 C 33.671875 47.289062 33.386719 48.449219 33.15625 49.625 C 32.925781 50.800781 32.746094 51.984375 32.621094 53.175781 C 32.492188 54.367188 32.421875 55.5625 32.402344 56.761719 C 32.378906 57.957031 32.414062 59.15625 32.5 60.347656 C 32.589844 61.542969 32.726562 62.734375 32.921875 63.914062 C 33.113281 65.097656 33.359375 66.269531 33.65625 67.429688 C 33.953125 68.589844 34.300781 69.738281 34.699219 70.867188 C 35.101562 71.996094 35.550781 73.105469 36.046875 74.195312 C 36.546875 75.285156 37.089844 76.351562 37.683594 77.390625 C 38.277344 78.433594 38.917969 79.445312 39.601562 80.429688 C 40.285156 81.414062 41.007812 82.367188 41.777344 83.285156 C 42.546875 84.203125 43.355469 85.089844 44.199219 85.9375 C 45.136719 86.871094 46.113281 87.753906 47.132812 88.59375 C 48.152344 89.429688 49.214844 90.21875 50.3125 90.949219 C 51.410156 91.683594 52.539062 92.363281 53.703125 92.984375 C 54.871094 93.609375 56.0625 94.171875 57.28125 94.675781 C 58.5 95.183594 59.742188 95.628906 61.007812 96.011719 C 62.269531 96.394531 63.550781 96.714844 64.84375 96.972656 C 66.140625 97.230469 67.445312 97.425781 68.757812 97.554688 C 70.074219 97.683594 71.390625 97.75 72.710938 97.75 C 74.03125 97.75 75.347656 97.683594 76.660156 97.554688 C 77.976562 97.425781 79.28125 97.234375 80.574219 96.976562 C 81.871094 96.71875 83.148438 96.398438 84.414062 96.015625 C 85.675781 95.632812 86.917969 95.1875 88.136719 94.683594 C 89.355469 94.179688 90.546875 93.617188 91.714844 92.992188 C 92.878906 92.371094 94.007812 91.695312 95.105469 90.960938 C 96.203125 90.226562 97.261719 89.441406 98.28125 88.605469 C 99.304688 87.765625 100.28125 86.882812 101.214844 85.949219 C 102.148438 85.015625 103.03125 84.039062 103.871094 83.015625 C 104.707031 81.996094 105.492188 80.9375 106.226562 79.839844 C 106.960938 78.742188 107.636719 77.609375 108.257812 76.445312 C 108.882812 75.28125 109.445312 74.089844 109.949219 72.871094 C 110.457031 71.652344 110.898438 70.410156 111.28125 69.144531 C 111.664062 67.882812 111.984375 66.605469 112.242188 65.308594 C 112.5 64.015625 112.691406 62.710938 112.824219 61.394531 C 112.953125 60.082031 113.015625 58.765625 113.015625 57.445312 C 113.015625 56.125 112.949219 54.804688 112.820312 53.492188 C 112.691406 52.179688 112.496094 50.875 112.238281 49.578125 C 111.980469 48.285156 111.660156 47.003906 111.277344 45.742188 C 110.894531 44.476562 110.449219 43.234375 109.945312 42.015625 C 109.4375 40.796875 108.875 39.605469 108.25 38.4375 C 107.628906 37.273438 106.949219 36.144531 106.214844 35.046875 C 105.484375 33.949219 104.695312 32.886719 103.859375 31.867188 C 103.019531 30.847656 102.136719 29.867188 101.203125 28.933594 Z M 101.203125 28.933594 " fill-opacity="1" fill-rule="evenodd"/></g></g></g></g></svg>
