<?xml version="1.0" encoding="UTF-8" standalone="no"?>
<!-- Created with Inkscape (http://www.inkscape.org/) -->

<svg
   width="62.144043mm"
   height="61.882187mm"
   viewBox="0 0 62.144043 61.882187"
   version="1.1"
   id="svg5"
   inkscape:version="1.2.2 (732a01da63, 2022-12-09)"
   sodipodi:docname="piktogramy stranky.svg"
   xml:space="preserve"
   xmlns:inkscape="http://www.inkscape.org/namespaces/inkscape"
   xmlns:sodipodi="http://sodipodi.sourceforge.net/DTD/sodipodi-0.dtd"
   xmlns="http://www.w3.org/2000/svg"
   xmlns:svg="http://www.w3.org/2000/svg"><sodipodi:namedview
     id="namedview7"
     pagecolor="#ffffff"
     bordercolor="#000000"
     borderopacity="0.25"
     inkscape:showpageshadow="2"
     inkscape:pageopacity="0.0"
     inkscape:pagecheckerboard="0"
     inkscape:deskcolor="#d1d1d1"
     inkscape:document-units="mm"
     showgrid="false"
     inkscape:zoom="0.66331435"
     inkscape:cx="3716.9405"
     inkscape:cy="-3706.3875"
     inkscape:window-width="1920"
     inkscape:window-height="991"
     inkscape:window-x="2551"
     inkscape:window-y="264"
     inkscape:window-maximized="1"
     inkscape:current-layer="g2570" /><defs
     id="defs2"><clipPath
       id="ce8215bb7b"><path
         d="M 766.41406,353.80469 H 943 V 529.21875 H 766.41406 Z m 0,0"
         clip-rule="nonzero"
         id="path1944" /></clipPath><filter
       x="0"
       y="0"
       width="1"
       height="1"
       id="2df2c268b5"><feColorMatrix
         values="0 0 0 0 1 0 0 0 0 1 0 0 0 0 1 0 0 0 1 0"
         color-interpolation-filters="sRGB"
         id="feColorMatrix13229" /></filter><filter
       x="0"
       y="0"
       width="1"
       height="1"
       id="9aa4933bfa"><feColorMatrix
         values="0 0 0 0 1 0 0 0 0 1 0 0 0 0 1 0 0 0 1 0"
         color-interpolation-filters="sRGB"
         id="feColorMatrix19416" /></filter></defs><g
     inkscape:label="Layer 1"
     inkscape:groupmode="layer"
     id="layer1"
     transform="translate(-72.96219,-29.983663)"><g
       id="g2570"
       transform="matrix(0.35277778,0,0,0.35277778,-197.5453,-94.830769)"><g
         clip-path="url(#ce8215bb7b)"
         id="g1986"><path
           fill="#000000"
           d="m 942.94922,441.03906 c -0.004,-2.62109 -0.1211,-5.23828 -0.35156,-7.84765 -0.23438,-2.60938 -0.58594,-5.20313 -1.05079,-7.78516 -0.46093,-2.57813 -1.04296,-5.13281 -1.73437,-7.66016 -0.69141,-2.52734 -1.49219,-5.01562 -2.40625,-7.47265 -0.91406,-2.45703 -1.9375,-4.86719 -3.06641,-7.23047 -1.1289,-2.36328 -2.35937,-4.67578 -3.6914,-6.92969 -1.33594,-2.25391 -2.76563,-4.44531 -4.29688,-6.57031 -1.52734,-2.12891 -3.14844,-4.1836 -4.86328,-6.16406 -1.71094,-1.98438 -3.50781,-3.88672 -5.39062,-5.70704 -1.87891,-1.82031 -3.83985,-3.55468 -5.875,-5.20312 -2.03516,-1.64844 -4.14063,-3.19922 -6.31641,-4.66016 -2.17578,-1.45703 -4.41016,-2.8164 -6.70313,-4.07812 -2.29687,-1.25781 -4.64453,-2.41406 -7.04296,-3.46094 -2.39844,-1.05078 -4.83594,-1.99219 -7.32032,-2.82422 -2.48047,-0.83203 -4.99609,-1.55469 -7.54297,-2.16015 -2.54296,-0.60938 -5.11328,-1.10157 -7.70312,-1.48047 v 99.92968 l 31.39844,-31.4375 17.99609,18.01954 -53.11719,53.1875 h -0.004 l -8.9961,9.00781 -9,-9.00781 -53.11718,-53.1875 17.99218,-18.01954 31.39844,31.4336 v -99.92578 c -2.58984,0.3789 -5.15625,0.87109 -7.70312,1.48047 -2.54688,0.60546 -5.0625,1.32812 -7.54297,2.16015 -2.48047,0.83203 -4.92188,1.77344 -7.32032,2.82422 -2.39843,1.04688 -4.74609,2.20313 -7.03906,3.46484 -2.29687,1.25782 -4.53125,2.61719 -6.70703,4.07813 -2.17187,1.45703 -4.27734,3.01172 -6.3125,4.65625 -2.03906,1.64844 -3.99609,3.38281 -5.87891,5.20312 -1.8789,1.82422 -3.67578,3.72657 -5.39062,5.70704 -1.71094,1.98046 -3.33203,4.03515 -4.85938,6.16406 -1.53125,2.125 -2.96093,4.3164 -4.29687,6.57031 -1.33594,2.25391 -2.56641,4.56641 -3.69531,6.92969 -1.12891,2.36328 -2.14844,4.77344 -3.0625,7.23047 -0.91407,2.45703 -1.71485,4.94922 -2.41016,7.47656 -0.69141,2.52734 -1.26953,5.07812 -1.73437,7.65625 -0.46485,2.58203 -0.8125,5.17578 -1.04688,7.78516 -0.23437,2.60937 -0.35156,5.22656 -0.35156,7.84765 0,1.44141 0.0352,2.88281 0.10547,4.32422 0.0742,1.44141 0.17968,2.88281 0.32031,4.31641 0.14062,1.4375 0.31641,2.87109 0.52734,4.29687 0.21094,1.42578 0.45703,2.84766 0.73828,4.26563 0.28125,1.41406 0.59766,2.82031 0.94922,4.22265 0.35157,1.39844 0.73438,2.78907 1.15235,4.17188 0.41797,1.3789 0.87109,2.75 1.35547,4.10937 0.48828,1.35938 1.0039,2.70313 1.55859,4.03907 0.55078,1.33203 1.13281,2.65234 1.75,3.95312 0.61719,1.30469 1.26562,2.59375 1.94531,3.86719 0.67969,1.27344 1.38672,2.52734 2.12891,3.76562 0.74219,1.23828 1.51172,2.45703 2.3125,3.65625 0.80078,1.20313 1.63281,2.38282 2.48828,3.53907 0.85937,1.16015 1.74609,2.29687 2.66016,3.41406 0.91406,1.11328 1.85546,2.20703 2.82421,3.27734 0.96875,1.07031 1.96094,2.11328 2.98047,3.13281 1.01953,1.02344 2.0625,2.01563 3.13282,2.98438 1.0664,0.96875 2.16015,1.91406 3.27343,2.82812 1.11328,0.91407 2.25,1.80469 3.40625,2.66407 1.16016,0.85937 2.33594,1.6875 3.53516,2.49218 1.19922,0.80079 2.41797,1.57422 3.65234,2.31641 1.23828,0.73828 2.49219,1.44922 3.76172,2.13281 1.26953,0.67969 2.5586,1.32813 3.86328,1.94532 1.30078,0.61718 2.61719,1.19921 3.94922,1.7539 1.33203,0.55078 2.67578,1.07031 4.03516,1.5586 1.35547,0.48437 2.72656,0.9375 4.10547,1.35546 1.3789,0.41797 2.76562,0.80469 4.16406,1.15625 1.39844,0.34766 2.80469,0.66407 4.21875,0.94532 1.41406,0.28515 2.83594,0.53125 4.26172,0.74218 1.42578,0.21094 2.85547,0.38672 4.28906,0.53125 1.43359,0.14063 2.87109,0.2461 4.3125,0.31641 1.4375,0.0703 2.87891,0.10547 4.32031,0.10547 1.44141,0 2.88282,-0.0352 4.32032,-0.10547 1.4414,-0.0703 2.8789,-0.17578 4.3125,-0.31641 1.43359,-0.14453 2.86328,-0.32031 4.28906,-0.53125 1.42578,-0.21093 2.84765,-0.45703 4.26172,-0.74218 1.41406,-0.28125 2.82031,-0.59766 4.21875,-0.94532 1.39843,-0.35156 2.78515,-0.73828 4.16406,-1.15625 1.37891,-0.41796 2.75,-0.87109 4.10547,-1.35546 1.35937,-0.48829 2.70312,-1.00782 4.03515,-1.5586 1.33204,-0.55469 2.64844,-1.13672 3.94922,-1.7539 1.30469,-0.61719 2.58985,-1.26563 3.86328,-1.94532 1.26954,-0.67968 2.52344,-1.39453 3.76172,-2.13281 1.23438,-0.74219 2.45313,-1.51562 3.65235,-2.31641 1.19922,-0.80468 2.375,-1.63281 3.53515,-2.49218 1.15625,-0.85938 2.29297,-1.75 3.40625,-2.66407 1.11328,-0.91406 2.20703,-1.85937 3.27344,-2.82812 1.06641,-0.96875 2.11328,-1.96094 3.13281,-2.98438 1.01563,-1.01953 2.01172,-2.0625 2.98047,-3.13281 0.96485,-1.07031 1.90625,-2.16406 2.82422,-3.27734 0.91406,-1.11719 1.80078,-2.25391 2.65625,-3.41406 0.85938,-1.15625 1.69141,-2.33594 2.49219,-3.53907 0.80078,-1.19922 1.57031,-2.41797 2.3125,-3.65625 0.73828,-1.23828 1.44922,-2.49218 2.1289,-3.76562 0.67969,-1.27344 1.32813,-2.5625 1.94532,-3.86328 0.61718,-1.30469 1.19922,-2.625 1.75,-3.95703 0.55078,-1.33594 1.07031,-2.67969 1.55859,-4.03907 0.48438,-1.35937 0.9375,-2.73047 1.35547,-4.10937 0.41797,-1.38281 0.80078,-2.77344 1.15234,-4.17188 0.35157,-1.40234 0.66407,-2.80859 0.94532,-4.22265 0.28125,-1.41797 0.52734,-2.83985 0.74218,-4.26563 0.21094,-1.42578 0.38672,-2.85937 0.52735,-4.29687 0.14062,-1.4336 0.24609,-2.875 0.3164,-4.31641 0.0742,-1.44141 0.10938,-2.88281 0.10938,-4.32422 z m 0,0"
           fill-opacity="1"
           fill-rule="evenodd"
           id="path1984" /></g></g></g><style
     type="text/css"
     id="style8374">
	.st0{fill:url(#SVGID_1_);}
	.st1{fill:#FDB73B;}
	.st2{fill:#005793;}
	.st3{fill:url(#SVGID_2_);}
	.st4{fill:url(#SVGID_3_);}
	.st5{fill:url(#SVGID_4_);}
</style></svg>
