<?xml version="1.0" encoding="UTF-8" standalone="no"?>
<!-- Created with Inkscape (http://www.inkscape.org/) -->

<svg
   width="55.00708mm"
   height="55.30072mm"
   viewBox="0 0 55.00708 55.30072"
   version="1.1"
   id="svg5"
   inkscape:version="1.2.2 (732a01da63, 2022-12-09)"
   sodipodi:docname="piktogramy stranky.svg"
   xml:space="preserve"
   xmlns:inkscape="http://www.inkscape.org/namespaces/inkscape"
   xmlns:sodipodi="http://sodipodi.sourceforge.net/DTD/sodipodi-0.dtd"
   xmlns="http://www.w3.org/2000/svg"
   xmlns:svg="http://www.w3.org/2000/svg"><sodipodi:namedview
     id="namedview7"
     pagecolor="#ffffff"
     bordercolor="#000000"
     borderopacity="0.25"
     inkscape:showpageshadow="2"
     inkscape:pageopacity="0.0"
     inkscape:pagecheckerboard="0"
     inkscape:deskcolor="#d1d1d1"
     inkscape:document-units="mm"
     showgrid="false"
     inkscape:zoom="0.66331435"
     inkscape:cx="3716.9405"
     inkscape:cy="-3706.3875"
     inkscape:window-width="1920"
     inkscape:window-height="991"
     inkscape:window-x="2551"
     inkscape:window-y="264"
     inkscape:window-maximized="1"
     inkscape:current-layer="g2570" /><defs
     id="defs2"><filter
       x="0"
       y="0"
       width="1"
       height="1"
       id="2df2c268b5"><feColorMatrix
         values="0 0 0 0 1 0 0 0 0 1 0 0 0 0 1 0 0 0 1 0"
         color-interpolation-filters="sRGB"
         id="feColorMatrix13229" /></filter><filter
       x="0"
       y="0"
       width="1"
       height="1"
       id="9aa4933bfa"><feColorMatrix
         values="0 0 0 0 1 0 0 0 0 1 0 0 0 0 1 0 0 0 1 0"
         color-interpolation-filters="sRGB"
         id="feColorMatrix19416" /></filter><clipPath
       id="8bfd1ae22a"><path
         d="M 32.660156,220 H 188.58594 V 377.39062 H 32.660156 Z m 0,0"
         clip-rule="nonzero"
         id="path20406" /></clipPath></defs><g
     inkscape:label="Layer 1"
     inkscape:groupmode="layer"
     id="layer1"
     transform="translate(-807.3597,1033.8503)"><g
       id="g2570"
       transform="matrix(0.35277778,0,0,0.35277778,-197.5453,-94.830769)"><g
         id="g3295"
         transform="translate(279.13082,-578.42595)"><g
           id="g8957"
           transform="translate(-1033.9467,-646.07329)"><g
             id="g19414"
             transform="translate(549.51323,-734.94565)"><g
               id="g20369"
               transform="translate(1196.7018,-538.24143)"><g
                 id="g21829"
                 transform="translate(1824.4902,-384.39803)"><g
                   clip-path="url(#8bfd1ae22a)"
                   id="g21335"><path
                     fill="#000000"
                     d="m 110.19922,220.29687 c -2.32813,0 -4.65234,0.10547 -6.97266,0.3125 -2.32031,0.21094 -4.624998,0.51954 -6.917966,0.9336 -2.292969,0.41406 -4.5625,0.92969 -6.808594,1.54297 -2.246094,0.61718 -4.460938,1.33203 -6.644531,2.14453 -2.183594,0.8125 -4.324219,1.72265 -6.425781,2.72656 -2.105469,1.00391 -4.15625,2.10156 -6.160157,3.28516 -2.003906,1.1875 -3.953125,2.46484 -5.84375,3.82422 -1.890625,1.35937 -3.714843,2.80468 -5.476562,4.32812 -1.761719,1.52344 -3.453125,3.12109 -5.074219,4.79688 -1.617188,1.67187 -3.160156,3.41796 -4.625,5.23046 -1.460938,1.8086 -2.84375,3.6836 -4.140625,5.61719 -1.296875,1.9375 -2.503906,3.92578 -3.625,5.96875 -1.117187,2.04297 -2.144531,4.12891 -3.078125,6.26563 -0.933594,2.13281 -1.769531,4.30468 -2.511719,6.51172 -0.738281,2.21093 -1.378906,4.44921 -1.917969,6.71484 -0.539062,2.26562 -0.980468,4.55078 -1.316406,6.85547 h 88.828124 l -27.945311,-27.94141 16.019531,-16.01562 47.27344,47.26953 8.00781,8.00781 -8.00781,8.00781 -47.27344,47.26953 -16.019531,-16.01171 27.941411,-27.9375 H 32.660156 c 0.335938,2.30468 0.777344,4.58984 1.316406,6.85546 0.539063,2.26563 1.179688,4.5 1.917969,6.71094 0.742188,2.20703 1.578125,4.37891 2.511719,6.51563 0.933594,2.13281 1.960938,4.21875 3.078125,6.26172 1.121094,2.04296 2.328125,4.03125 3.625,5.96875 1.296875,1.93359 2.679687,3.80859 4.140625,5.61718 1.464844,1.8125 3.007812,3.5586 4.625,5.23047 1.621094,1.67578 3.3125,3.27344 5.074219,4.79688 1.761719,1.52343 3.585937,2.96875 5.476562,4.32812 1.890625,1.35938 3.839844,2.63281 5.84375,3.82031 2.003907,1.1875 4.058594,2.28516 6.160157,3.28907 2.101562,1.0039 4.242187,1.91406 6.425781,2.72656 2.183593,0.8125 4.398437,1.52734 6.644531,2.14453 2.246094,0.61328 4.515625,1.12891 6.808594,1.54297 2.292968,0.41406 4.597656,0.72266 6.917966,0.92969 2.32032,0.21093 4.64453,0.3125 6.97266,0.3125 1.28516,0 2.56641,-0.0312 3.84766,-0.0937 1.28125,-0.0625 2.5625,-0.15625 3.83593,-0.28125 1.27735,-0.125 2.55078,-0.28516 3.82032,-0.47266 1.26953,-0.1875 2.53125,-0.40625 3.78906,-0.65625 1.25781,-0.25 2.51172,-0.53125 3.7539,-0.84375 1.2461,-0.3125 2.48047,-0.65234 3.70703,-1.02734 1.23047,-0.3711 2.44532,-0.77344 3.65625,-1.20313 1.20704,-0.43359 2.40235,-0.89453 3.58985,-1.38672 1.18359,-0.49218 2.35547,-1.01172 3.51562,-1.55859 1.16016,-0.54688 2.30469,-1.125 3.4375,-1.73047 1.12891,-0.60547 2.2461,-1.23437 3.34766,-1.89453 1.09766,-0.66016 2.18359,-1.34766 3.25,-2.05859 1.06641,-0.71485 2.11328,-1.45313 3.14453,-2.21485 1.03125,-0.76562 2.04297,-1.55469 3.03125,-2.36719 0.99219,-0.8125 1.96484,-1.65234 2.91406,-2.51171 0.95313,-0.86329 1.87891,-1.7461 2.78907,-2.65235 0.90625,-0.91015 1.78906,-1.83594 2.65234,-2.78906 0.85937,-0.94922 1.69922,-1.92188 2.51172,-2.91016 0.8125,-0.99218 1.60156,-2.0039 2.36719,-3.03515 0.76562,-1.03125 1.5039,-2.07813 2.21484,-3.14453 0.71094,-1.06641 1.39844,-2.14844 2.05859,-3.25 0.66016,-1.10157 1.29297,-2.21485 1.89453,-3.34766 0.60547,-1.13281 1.1836,-2.27734 1.73047,-3.4375 0.55078,-1.16016 1.07032,-2.33203 1.5586,-3.51563 0.49218,-1.18359 0.95312,-2.38281 1.38672,-3.58984 0.42968,-1.20703 0.83203,-2.42578 1.20703,-3.65234 0.37109,-1.22657 0.71484,-2.46485 1.02343,-3.70703 0.3125,-1.2461 0.59375,-2.4961 0.84375,-3.75391 0.25,-1.25781 0.46875,-2.52344 0.66016,-3.79297 0.1875,-1.26562 0.34375,-2.53906 0.46875,-3.81641 0.125,-1.27734 0.22266,-2.55468 0.28516,-3.83593 0.0625,-1.28125 0.0937,-2.5625 0.0937,-3.84766 0,-1.28125 -0.0312,-2.5625 -0.0937,-3.84375 -0.0625,-1.28125 -0.16016,-2.5625 -0.28516,-3.83594 -0.125,-1.27734 -0.28125,-2.55078 -0.46875,-3.82031 -0.19141,-1.26953 -0.41016,-2.53125 -0.66016,-3.78906 -0.25,-1.25781 -0.53125,-2.51172 -0.84375,-3.75391 -0.30859,-1.24609 -0.65234,-2.48047 -1.02343,-3.70703 -0.375,-1.23047 -0.77735,-2.44531 -1.20703,-3.65234 -0.4336,-1.21094 -0.89454,-2.40625 -1.38672,-3.58985 -0.48828,-1.1875 -1.00782,-2.35937 -1.5586,-3.51953 -0.54687,-1.15625 -1.125,-2.30469 -1.73047,-3.43359 -0.60156,-1.13281 -1.23437,-2.25 -1.89453,-3.34766 -0.66015,-1.10156 -1.34765,-2.18359 -2.05859,-3.25 -0.71094,-1.0664 -1.44922,-2.11719 -2.21484,-3.14453 -0.76563,-1.03125 -1.55469,-2.04297 -2.36719,-3.03516 -0.8125,-0.99218 -1.65235,-1.96093 -2.51172,-2.91406 -0.86328,-0.94922 -1.74609,-1.8789 -2.65234,-2.78515 -0.91016,-0.90625 -1.83594,-1.78907 -2.78907,-2.65235 -0.94922,-0.85937 -1.92187,-1.69922 -2.91406,-2.51172 -0.98828,-0.8125 -2,-1.60156 -3.03125,-2.36718 -1.03125,-0.76563 -2.07812,-1.50391 -3.14453,-2.21485 -1.06641,-0.71484 -2.15234,-1.39844 -3.25,-2.05859 -1.10156,-0.66016 -2.21875,-1.29297 -3.34766,-1.89453 -1.13281,-0.60547 -2.27734,-1.1836 -3.4375,-1.73047 -1.16015,-0.55078 -2.33203,-1.07031 -3.51562,-1.5586 -1.1875,-0.49218 -2.38281,-0.95312 -3.58985,-1.38671 -1.21093,-0.42969 -2.42578,-0.83204 -3.65625,-1.20704 -1.22656,-0.37109 -2.46093,-0.71484 -3.70703,-1.02343 -1.24218,-0.3125 -2.49609,-0.59375 -3.7539,-0.84375 -1.25781,-0.25 -2.51953,-0.46875 -3.78906,-0.66016 -1.26954,-0.1875 -2.54297,-0.34375 -3.82032,-0.46875 -1.27343,-0.125 -2.55468,-0.21875 -3.83593,-0.28516 -1.28125,-0.0625 -2.5625,-0.0937 -3.84766,-0.0937 z m 0,0"
                     fill-opacity="1"
                     fill-rule="evenodd"
                     id="path21333" /></g></g></g></g></g></g></g></g><style
     type="text/css"
     id="style8374">
	.st0{fill:url(#SVGID_1_);}
	.st1{fill:#FDB73B;}
	.st2{fill:#005793;}
	.st3{fill:url(#SVGID_2_);}
	.st4{fill:url(#SVGID_3_);}
	.st5{fill:url(#SVGID_4_);}
</style></svg>
