<?xml version="1.0" encoding="UTF-8" standalone="no"?>
<!-- Created with Inkscape (http://www.inkscape.org/) -->

<svg
   width="28.441772mm"
   height="28.440491mm"
   viewBox="0 0 28.441772 28.440491"
   version="1.1"
   id="svg5"
   inkscape:version="1.2.2 (732a01da63, 2022-12-09)"
   sodipodi:docname="piktogramy stranky.svg"
   xml:space="preserve"
   xmlns:inkscape="http://www.inkscape.org/namespaces/inkscape"
   xmlns:sodipodi="http://sodipodi.sourceforge.net/DTD/sodipodi-0.dtd"
   xmlns="http://www.w3.org/2000/svg"
   xmlns:svg="http://www.w3.org/2000/svg"><sodipodi:namedview
     id="namedview7"
     pagecolor="#ffffff"
     bordercolor="#000000"
     borderopacity="0.25"
     inkscape:showpageshadow="2"
     inkscape:pageopacity="0.0"
     inkscape:pagecheckerboard="0"
     inkscape:deskcolor="#d1d1d1"
     inkscape:document-units="mm"
     showgrid="false"
     inkscape:zoom="0.66331435"
     inkscape:cx="3716.9405"
     inkscape:cy="-3706.3875"
     inkscape:window-width="1920"
     inkscape:window-height="991"
     inkscape:window-x="2551"
     inkscape:window-y="264"
     inkscape:window-maximized="1"
     inkscape:current-layer="g2570" /><defs
     id="defs2"><filter
       x="0"
       y="0"
       width="1"
       height="1"
       id="2df2c268b5"><feColorMatrix
         values="0 0 0 0 1 0 0 0 0 1 0 0 0 0 1 0 0 0 1 0"
         color-interpolation-filters="sRGB"
         id="feColorMatrix13229" /></filter><clipPath
       id="9847c8e5a2"><path
         d="m 910,23 h 82 v 82 h -82 z m 0,0"
         clip-rule="nonzero"
         id="path13270" /></clipPath><clipPath
       id="3785ba87b9"><path
         d="M 1007.8594,64.402344 951.14062,121.12109 893.89453,63.871094 950.61328,7.152344 Z m 0,0"
         clip-rule="nonzero"
         id="path13273" /></clipPath><clipPath
       id="7e2d458758"><path
         d="M 1007.8594,64.402344 951.14062,121.12109 893.89453,63.871094 950.61328,7.152344 Z m 0,0"
         clip-rule="nonzero"
         id="path13276" /></clipPath><clipPath
       id="8751357923"><path
         d="M 1007.8594,64.402344 951.14062,121.12109 893.89453,63.871094 950.61328,7.152344 Z m 0,0"
         clip-rule="nonzero"
         id="path13279" /></clipPath><filter
       x="0"
       y="0"
       width="1"
       height="1"
       id="9aa4933bfa"><feColorMatrix
         values="0 0 0 0 1 0 0 0 0 1 0 0 0 0 1 0 0 0 1 0"
         color-interpolation-filters="sRGB"
         id="feColorMatrix19416" /></filter></defs><g
     inkscape:label="Layer 1"
     inkscape:groupmode="layer"
     id="layer1"
     transform="translate(-51.30848,777.7263)"><g
       id="g2570"
       transform="matrix(0.35277778,0,0,0.35277778,-197.5453,-94.830769)"><g
         id="g3295"
         transform="translate(279.13082,-578.42595)"><g
           id="g8957"
           transform="translate(-1033.9467,-646.07329)"><g
             id="g19414"
             transform="translate(549.51323,-734.94565)"><g
               clip-path="url(#9847c8e5a2)"
               id="g13400"><g
                 clip-path="url(#3785ba87b9)"
                 id="g13398"><g
                   clip-path="url(#7e2d458758)"
                   id="g13396"><g
                     clip-path="url(#8751357923)"
                     id="g13394"><path
                       fill="#000000"
                       d="m 979.53125,92.484375 c 0.84766,-0.847656 1.65234,-1.730469 2.42187,-2.652344 0.76954,-0.917969 1.4961,-1.871093 2.17969,-2.855469 0.6836,-0.984374 1.32031,-1.996093 1.91406,-3.039062 0.59375,-1.039062 1.14063,-2.105469 1.63672,-3.195312 0.5,-1.089844 0.94922,-2.199219 1.34766,-3.328126 0.39844,-1.128906 0.74609,-2.273437 1.04297,-3.4375 0.30078,-1.160156 0.54297,-2.332031 0.73828,-3.511718 0.19141,-1.183594 0.33203,-2.371094 0.41797,-3.566406 0.0859,-1.195313 0.12109,-2.394532 0.10156,-3.589844 -0.0195,-1.199219 -0.0937,-2.394532 -0.21875,-3.585938 -0.12891,-1.191406 -0.30859,-2.375 -0.53906,-3.550781 C 990.34375,55 990.05859,53.835938 989.72266,52.6875 c -0.33594,-1.152344 -0.71875,-2.285156 -1.15625,-3.398438 -0.4375,-1.117187 -0.92188,-2.210937 -1.45704,-3.285156 -0.53515,-1.070312 -1.11328,-2.117187 -1.74218,-3.136718 -0.62891,-1.019532 -1.29688,-2.011719 -2.01563,-2.972657 l -32.30859,32.3125 20.32422,-0.0039 -0.004,11.648437 -34.38672,0.0078 h -5.82422 l 0.004,-5.824219 0.008,-34.382812 11.64844,-0.0039 -0.004,20.320312 32.3086,-32.308594 c -0.96094,-0.714844 -1.94922,-1.386718 -2.97266,-2.015625 -1.01953,-0.625 -2.06641,-1.207031 -3.13672,-1.742187 -1.07422,-0.53125 -2.16797,-1.019532 -3.28125,-1.453125 -1.11719,-0.4375 -2.25,-0.824219 -3.39844,-1.160157 -1.15234,-0.335937 -2.3125,-0.617187 -3.48828,-0.851562 -1.17578,-0.230469 -2.35937,-0.410156 -3.55078,-0.535156 -1.1914,-0.125 -2.38672,-0.199219 -3.58203,-0.21875 -1.19922,-0.01953 -2.39453,0.01172 -3.58984,0.09766 -1.19532,0.08984 -2.38282,0.230469 -3.56641,0.421875 -1.18359,0.191406 -2.35547,0.4375 -3.51562,0.734375 -1.16016,0.296875 -2.30469,0.644531 -3.4375,1.046875 -1.12891,0.398437 -2.23829,0.847656 -3.32813,1.34375 -1.08984,0.5 -2.15625,1.046875 -3.19531,1.640625 -1.04297,0.589844 -2.05469,1.230469 -3.03906,1.914062 -0.98438,0.683594 -1.9336,1.410157 -2.85547,2.175782 -0.91797,0.769531 -1.80078,1.578125 -2.64844,2.425781 -0.93359,0.933594 -1.82031,1.910156 -2.66016,2.929687 -0.83593,1.023438 -1.62109,2.082032 -2.35547,3.179688 -0.73437,1.097656 -1.41406,2.230469 -2.03515,3.394531 -0.6211,1.164063 -1.1875,2.355469 -1.69141,3.574219 -0.50781,1.222656 -0.94922,2.464844 -1.33594,3.726562 -0.38281,1.261719 -0.70312,2.542969 -0.96093,3.835938 -0.25782,1.296875 -0.45313,2.601562 -0.58203,3.914062 -0.12891,1.316407 -0.19532,2.632813 -0.19532,3.953126 0,1.320312 0.0664,2.636718 0.19532,3.953124 0.1289,1.3125 0.32031,2.617188 0.57812,3.910157 0.25781,1.296875 0.57813,2.574219 0.96094,3.839843 0.38281,1.261719 0.82812,2.503907 1.33203,3.722657 0.50391,1.222656 1.07031,2.414062 1.69141,3.578125 0.62109,1.164062 1.30078,2.292968 2.03125,3.390625 0.73437,1.097656 1.51953,2.15625 2.35937,3.179687 0.83594,1.019532 1.72266,1.996094 2.65625,2.929688 0.93359,0.933594 1.91016,1.820312 2.92969,2.65625 1.01953,0.835937 2.07812,1.621094 3.17578,2.355468 1.09766,0.734376 2.23047,1.410157 3.39453,2.035157 1.16406,0.621088 2.35547,1.183588 3.57422,1.687498 1.22266,0.50781 2.46094,0.94922 3.72656,1.33203 1.26172,0.38672 2.54297,0.70313 3.83594,0.96094 1.29687,0.25781 2.60156,0.45312 3.91406,0.58203 1.3125,0.12891 2.63281,0.19141 3.95313,0.19141 1.32031,0 2.63672,-0.0664 3.94922,-0.19532 1.3164,-0.1289 2.61718,-0.32422 3.91406,-0.58203 1.29687,-0.25781 2.57422,-0.57812 3.83984,-0.96094 1.26172,-0.38281 2.50391,-0.82812 3.72266,-1.33203 1.21875,-0.50781 2.41406,-1.07031 3.57812,-1.691401 1.16407,-0.625 2.29688,-1.300781 3.39453,-2.035156 1.09766,-0.734375 2.15625,-1.519531 3.17579,-2.359375 1.02343,-0.835937 2,-1.722656 2.93359,-2.65625 z m 0,0"
                       fill-opacity="1"
                       fill-rule="evenodd"
                       id="path13392" /></g></g></g></g></g></g></g></g></g><style
     type="text/css"
     id="style8374">
	.st0{fill:url(#SVGID_1_);}
	.st1{fill:#FDB73B;}
	.st2{fill:#005793;}
	.st3{fill:url(#SVGID_2_);}
	.st4{fill:url(#SVGID_3_);}
	.st5{fill:url(#SVGID_4_);}
</style></svg>
