<?xml version="1.0" encoding="UTF-8" standalone="no"?>
<!-- Created with Inkscape (http://www.inkscape.org/) -->

<svg
   width="28.441078mm"
   height="28.441803mm"
   viewBox="0 0 28.441078 28.441803"
   version="1.1"
   id="svg5"
   inkscape:version="1.2.2 (732a01da63, 2022-12-09)"
   sodipodi:docname="piktogramy stranky.svg"
   xml:space="preserve"
   xmlns:inkscape="http://www.inkscape.org/namespaces/inkscape"
   xmlns:sodipodi="http://sodipodi.sourceforge.net/DTD/sodipodi-0.dtd"
   xmlns="http://www.w3.org/2000/svg"
   xmlns:svg="http://www.w3.org/2000/svg"><sodipodi:namedview
     id="namedview7"
     pagecolor="#ffffff"
     bordercolor="#000000"
     borderopacity="0.25"
     inkscape:showpageshadow="2"
     inkscape:pageopacity="0.0"
     inkscape:pagecheckerboard="0"
     inkscape:deskcolor="#d1d1d1"
     inkscape:document-units="mm"
     showgrid="false"
     inkscape:zoom="0.66331435"
     inkscape:cx="3716.9405"
     inkscape:cy="-3706.3875"
     inkscape:window-width="1920"
     inkscape:window-height="991"
     inkscape:window-x="2551"
     inkscape:window-y="264"
     inkscape:window-maximized="1"
     inkscape:current-layer="g2570" /><defs
     id="defs2"><clipPath
       id="890f747d6b"><path
         d="m 32,17 h 82 V 98 H 32 Z m 0,0"
         clip-rule="nonzero"
         id="path2589" /></clipPath><clipPath
       id="9e06ff0b3d"><path
         d="M 73.121094,0.605469 129.83594,57.324219 72.589844,114.57031 15.871094,57.855469 Z m 0,0"
         clip-rule="nonzero"
         id="path2592" /></clipPath><clipPath
       id="aca34e4583"><path
         d="M 73.121094,0.605469 129.83594,57.324219 72.589844,114.57031 15.871094,57.855469 Z m 0,0"
         clip-rule="nonzero"
         id="path2595" /></clipPath><clipPath
       id="b920f41777"><path
         d="M 73.121094,0.605469 129.83594,57.324219 72.589844,114.57031 15.871094,57.855469 Z m 0,0"
         clip-rule="nonzero"
         id="path2598" /></clipPath><filter
       x="0"
       y="0"
       width="1"
       height="1"
       id="2df2c268b5"><feColorMatrix
         values="0 0 0 0 1 0 0 0 0 1 0 0 0 0 1 0 0 0 1 0"
         color-interpolation-filters="sRGB"
         id="feColorMatrix13229" /></filter><filter
       x="0"
       y="0"
       width="1"
       height="1"
       id="9aa4933bfa"><feColorMatrix
         values="0 0 0 0 1 0 0 0 0 1 0 0 0 0 1 0 0 0 1 0"
         color-interpolation-filters="sRGB"
         id="feColorMatrix19416" /></filter></defs><g
     inkscape:label="Layer 1"
     inkscape:groupmode="layer"
     id="layer1"
     transform="translate(87.645823,292.84435)"><g
       id="g2570"
       transform="matrix(0.35277778,0,0,0.35277778,-197.5453,-94.830769)"><g
         id="g3295"
         transform="translate(279.13082,-578.42595)"><g
           clip-path="url(#890f747d6b)"
           id="g3047"><g
             clip-path="url(#9e06ff0b3d)"
             id="g3045"><g
               clip-path="url(#aca34e4583)"
               id="g3043"><g
                 clip-path="url(#b920f41777)"
                 id="g3041"><path
                   fill="#000000"
                   d="m 101.20313,28.933594 c -0.84766,-0.84375 -1.73438,-1.652344 -2.652349,-2.421875 -0.917969,-0.769531 -1.871093,-1.496094 -2.855469,-2.175781 -0.984374,-0.683594 -1.996093,-1.324219 -3.039062,-1.917969 -1.039062,-0.59375 -2.105469,-1.136719 -3.195312,-1.636719 -1.089844,-0.5 -2.199219,-0.945312 -3.328126,-1.347656 C 85.003906,19.035156 83.855469,18.6875 82.695312,18.390625 81.535156,18.09375 80.363281,17.847656 79.179688,17.65625 78,17.460938 76.808594,17.320312 75.613281,17.234375 c -1.191406,-0.08594 -2.390625,-0.121094 -3.585937,-0.101563 -1.199219,0.02344 -2.394532,0.09375 -3.585938,0.222657 -1.191406,0.125 -2.375,0.304687 -3.550781,0.535156 -1.175781,0.230469 -2.335937,0.515625 -3.488281,0.851563 -1.148438,0.335937 -2.28125,0.722656 -3.398438,1.15625 -1.113281,0.4375 -2.207031,0.921874 -3.28125,1.457031 -1.070312,0.535156 -2.117187,1.117187 -3.136718,1.742187 -1.023438,0.628906 -2.011719,1.300782 -2.972657,2.015625 l 32.3125,32.308594 -0.0078,-20.324219 11.652343,0.0039 0.0078,34.386719 V 77.3125 h -5.824219 l -34.386718,-0.0078 -0.0039,-11.652344 20.324219,0.0039 -32.308594,-32.308594 c -0.714844,0.960938 -1.386718,1.953125 -2.015625,2.972656 -0.628906,1.019532 -1.207031,2.066407 -1.742187,3.136719 -0.535156,1.074219 -1.019532,2.167969 -1.457032,3.28125 -0.433593,1.117188 -0.820312,2.25 -1.15625,3.398438 -0.335937,1.152343 -0.621093,2.3125 -0.851562,3.488281 -0.230469,1.175781 -0.410156,2.359375 -0.535156,3.550781 -0.128906,1.191407 -0.199219,2.386719 -0.21875,3.585938 -0.02344,1.195312 0.01172,2.394531 0.09766,3.585937 0.08984,1.195313 0.226562,2.386719 0.421875,3.566406 0.191406,1.183594 0.4375,2.355469 0.734375,3.515626 0.296875,1.160156 0.644531,2.308593 1.042969,3.4375 0.402343,1.128906 0.851562,2.238281 1.347656,3.328124 0.5,1.089844 1.042969,2.15625 1.636719,3.195313 0.59375,1.042969 1.234375,2.054687 1.917968,3.039063 0.683594,0.984374 1.40625,1.9375 2.175782,2.855468 0.769531,0.917969 1.578125,1.804688 2.421875,2.652344 0.9375,0.933594 1.914062,1.816406 2.933593,2.65625 1.019532,0.835938 2.082032,1.625 3.179688,2.355469 1.097656,0.734375 2.226562,1.414062 3.390625,2.035156 1.167969,0.625 2.359375,1.1875 3.578125,1.691406 1.21875,0.507813 2.460938,0.953125 3.726562,1.335938 1.261719,0.382812 2.542969,0.703125 3.835938,0.960937 1.296875,0.257813 2.601562,0.453125 3.914062,0.582032 1.316407,0.128906 2.632813,0.195312 3.953126,0.195312 1.320312,0 2.636718,-0.06641 3.949218,-0.195312 1.316406,-0.128907 2.621094,-0.320313 3.914063,-0.578126 1.296875,-0.257812 2.574219,-0.578124 3.839843,-0.960937 1.261719,-0.382813 2.503907,-0.828125 3.722657,-1.332031 1.21875,-0.503906 2.410156,-1.066406 3.578125,-1.691406 1.164062,-0.621094 2.292968,-1.296876 3.390625,-2.03125 1.097656,-0.734376 2.15625,-1.519532 3.175781,-2.355469 1.023438,-0.839844 2,-1.722657 2.93359,-2.65625 0.9336,-0.933594 1.81641,-1.910157 2.65625,-2.933594 0.83594,-1.019531 1.6211,-2.078125 2.35547,-3.175781 0.73438,-1.097656 1.41016,-2.230469 2.03125,-3.394532 0.625,-1.164062 1.1875,-2.355468 1.69141,-3.574218 0.50781,-1.21875 0.94922,-2.460938 1.33203,-3.726563 0.38281,-1.261719 0.70313,-2.539062 0.96094,-3.835937 0.25781,-1.292969 0.44922,-2.597656 0.58203,-3.914063 0.12891,-1.3125 0.19141,-2.628906 0.19141,-3.949219 0,-1.320312 -0.0664,-2.640624 -0.19532,-3.953124 -0.1289,-1.3125 -0.32422,-2.617188 -0.58203,-3.914063 -0.25781,-1.292969 -0.57812,-2.574219 -0.96094,-3.835937 -0.38281,-1.265626 -0.82812,-2.507813 -1.33203,-3.726563 -0.50781,-1.21875 -1.07031,-2.410156 -1.69531,-3.578125 -0.62109,-1.164062 -1.30078,-2.292969 -2.03516,-3.390625 -0.73046,-1.097656 -1.51953,-2.160156 -2.35546,-3.179687 -0.83985,-1.019532 -1.72266,-2 -2.65625,-2.933594 z m 0,0"
                   fill-opacity="1"
                   fill-rule="evenodd"
                   id="path3039" /></g></g></g></g></g></g></g><style
     type="text/css"
     id="style8374">
	.st0{fill:url(#SVGID_1_);}
	.st1{fill:#FDB73B;}
	.st2{fill:#005793;}
	.st3{fill:url(#SVGID_2_);}
	.st4{fill:url(#SVGID_3_);}
	.st5{fill:url(#SVGID_4_);}
</style></svg>
